<mxfile host="app.diagrams.net" modified="2023-11-10T00:32:37.765Z" agent="Mozilla/5.0 (Windows NT 10.0; Win64; x64) AppleWebKit/537.36 (KHTML, like Gecko) Chrome/119.0.0.0 Safari/537.36" etag="CDBUnGwUElBVwZkbN5av" version="22.1.0" type="github" pages="7">
  <diagram id="C5RBs43oDa-KdzZeNtuy" name="Page-1">
    <mxGraphModel dx="1050" dy="542" grid="1" gridSize="10" guides="1" tooltips="1" connect="1" arrows="1" fold="1" page="1" pageScale="1" pageWidth="827" pageHeight="1169" math="0" shadow="0">
      <root>
        <mxCell id="WIyWlLk6GJQsqaUBKTNV-0" />
        <mxCell id="WIyWlLk6GJQsqaUBKTNV-1" parent="WIyWlLk6GJQsqaUBKTNV-0" />
        <mxCell id="a3PIm-tAISTbNr7DRbaw-2" style="edgeStyle=orthogonalEdgeStyle;rounded=0;orthogonalLoop=1;jettySize=auto;html=1;entryX=0.5;entryY=0;entryDx=0;entryDy=0;" parent="WIyWlLk6GJQsqaUBKTNV-1" source="a3PIm-tAISTbNr7DRbaw-0" target="a3PIm-tAISTbNr7DRbaw-1" edge="1">
          <mxGeometry relative="1" as="geometry" />
        </mxCell>
        <mxCell id="a3PIm-tAISTbNr7DRbaw-0" value="Старт" style="ellipse;whiteSpace=wrap;html=1;" parent="WIyWlLk6GJQsqaUBKTNV-1" vertex="1">
          <mxGeometry x="400" y="50" width="120" height="80" as="geometry" />
        </mxCell>
        <mxCell id="a3PIm-tAISTbNr7DRbaw-5" style="edgeStyle=orthogonalEdgeStyle;rounded=0;orthogonalLoop=1;jettySize=auto;html=1;entryX=0.5;entryY=0;entryDx=0;entryDy=0;" parent="WIyWlLk6GJQsqaUBKTNV-1" source="a3PIm-tAISTbNr7DRbaw-1" target="a3PIm-tAISTbNr7DRbaw-4" edge="1">
          <mxGeometry relative="1" as="geometry" />
        </mxCell>
        <mxCell id="a3PIm-tAISTbNr7DRbaw-1" value="Підключення бібліотек iostream та math.h" style="rounded=1;whiteSpace=wrap;html=1;" parent="WIyWlLk6GJQsqaUBKTNV-1" vertex="1">
          <mxGeometry x="400" y="150" width="120" height="60" as="geometry" />
        </mxCell>
        <mxCell id="a3PIm-tAISTbNr7DRbaw-7" style="edgeStyle=orthogonalEdgeStyle;rounded=0;orthogonalLoop=1;jettySize=auto;html=1;entryX=0.5;entryY=0;entryDx=0;entryDy=0;" parent="WIyWlLk6GJQsqaUBKTNV-1" source="a3PIm-tAISTbNr7DRbaw-4" target="a3PIm-tAISTbNr7DRbaw-6" edge="1">
          <mxGeometry relative="1" as="geometry" />
        </mxCell>
        <mxCell id="a3PIm-tAISTbNr7DRbaw-4" value="Введення основних змінних a=1000, b=0,0001 через тип даних float та double послідовно" style="shape=parallelogram;perimeter=parallelogramPerimeter;whiteSpace=wrap;html=1;fixedSize=1;" parent="WIyWlLk6GJQsqaUBKTNV-1" vertex="1">
          <mxGeometry x="335" y="230" width="250" height="60" as="geometry" />
        </mxCell>
        <mxCell id="a3PIm-tAISTbNr7DRbaw-9" style="edgeStyle=orthogonalEdgeStyle;rounded=0;orthogonalLoop=1;jettySize=auto;html=1;entryX=0.5;entryY=0;entryDx=0;entryDy=0;" parent="WIyWlLk6GJQsqaUBKTNV-1" source="a3PIm-tAISTbNr7DRbaw-6" target="a3PIm-tAISTbNr7DRbaw-8" edge="1">
          <mxGeometry relative="1" as="geometry" />
        </mxCell>
        <mxCell id="a3PIm-tAISTbNr7DRbaw-6" value="Введення проміжних змінних c, d, e, f, g" style="shape=parallelogram;perimeter=parallelogramPerimeter;whiteSpace=wrap;html=1;fixedSize=1;" parent="WIyWlLk6GJQsqaUBKTNV-1" vertex="1">
          <mxGeometry x="380" y="310" width="160" height="60" as="geometry" />
        </mxCell>
        <mxCell id="a3PIm-tAISTbNr7DRbaw-11" style="edgeStyle=orthogonalEdgeStyle;rounded=0;orthogonalLoop=1;jettySize=auto;html=1;exitX=0.5;exitY=1;exitDx=0;exitDy=0;" parent="WIyWlLk6GJQsqaUBKTNV-1" source="a3PIm-tAISTbNr7DRbaw-8" target="a3PIm-tAISTbNr7DRbaw-10" edge="1">
          <mxGeometry relative="1" as="geometry" />
        </mxCell>
        <mxCell id="a3PIm-tAISTbNr7DRbaw-8" value="Обчислення результату за поданою формулою" style="rounded=1;whiteSpace=wrap;html=1;" parent="WIyWlLk6GJQsqaUBKTNV-1" vertex="1">
          <mxGeometry x="400" y="390" width="120" height="60" as="geometry" />
        </mxCell>
        <mxCell id="a3PIm-tAISTbNr7DRbaw-22" style="edgeStyle=orthogonalEdgeStyle;rounded=0;orthogonalLoop=1;jettySize=auto;html=1;entryX=0.5;entryY=0;entryDx=0;entryDy=0;" parent="WIyWlLk6GJQsqaUBKTNV-1" source="a3PIm-tAISTbNr7DRbaw-10" target="a3PIm-tAISTbNr7DRbaw-19" edge="1">
          <mxGeometry relative="1" as="geometry" />
        </mxCell>
        <mxCell id="a3PIm-tAISTbNr7DRbaw-23" style="edgeStyle=orthogonalEdgeStyle;rounded=0;orthogonalLoop=1;jettySize=auto;html=1;exitX=0.5;exitY=1;exitDx=0;exitDy=0;entryX=0.5;entryY=0;entryDx=0;entryDy=0;" parent="WIyWlLk6GJQsqaUBKTNV-1" source="a3PIm-tAISTbNr7DRbaw-10" target="a3PIm-tAISTbNr7DRbaw-20" edge="1">
          <mxGeometry relative="1" as="geometry" />
        </mxCell>
        <mxCell id="a3PIm-tAISTbNr7DRbaw-10" value="Вивід результату" style="shape=parallelogram;perimeter=parallelogramPerimeter;whiteSpace=wrap;html=1;fixedSize=1;" parent="WIyWlLk6GJQsqaUBKTNV-1" vertex="1">
          <mxGeometry x="390" y="470" width="140" height="60" as="geometry" />
        </mxCell>
        <mxCell id="a3PIm-tAISTbNr7DRbaw-16" value="Фініш" style="ellipse;whiteSpace=wrap;html=1;" parent="WIyWlLk6GJQsqaUBKTNV-1" vertex="1">
          <mxGeometry x="400" y="630" width="120" height="80" as="geometry" />
        </mxCell>
        <mxCell id="a3PIm-tAISTbNr7DRbaw-24" style="edgeStyle=orthogonalEdgeStyle;rounded=0;orthogonalLoop=1;jettySize=auto;html=1;exitX=0.5;exitY=1;exitDx=0;exitDy=0;entryX=0;entryY=0.5;entryDx=0;entryDy=0;" parent="WIyWlLk6GJQsqaUBKTNV-1" source="a3PIm-tAISTbNr7DRbaw-19" target="a3PIm-tAISTbNr7DRbaw-16" edge="1">
          <mxGeometry relative="1" as="geometry" />
        </mxCell>
        <mxCell id="a3PIm-tAISTbNr7DRbaw-19" value="Вивід результату із використанням float не є точним" style="shape=parallelogram;perimeter=parallelogramPerimeter;whiteSpace=wrap;html=1;fixedSize=1;" parent="WIyWlLk6GJQsqaUBKTNV-1" vertex="1">
          <mxGeometry x="260" y="570" width="170" height="60" as="geometry" />
        </mxCell>
        <mxCell id="a3PIm-tAISTbNr7DRbaw-25" style="edgeStyle=orthogonalEdgeStyle;rounded=0;orthogonalLoop=1;jettySize=auto;html=1;exitX=0.5;exitY=1;exitDx=0;exitDy=0;entryX=1;entryY=0.5;entryDx=0;entryDy=0;" parent="WIyWlLk6GJQsqaUBKTNV-1" source="a3PIm-tAISTbNr7DRbaw-20" target="a3PIm-tAISTbNr7DRbaw-16" edge="1">
          <mxGeometry relative="1" as="geometry" />
        </mxCell>
        <mxCell id="a3PIm-tAISTbNr7DRbaw-20" value="Вивід результату із використанням double є точним" style="shape=parallelogram;perimeter=parallelogramPerimeter;whiteSpace=wrap;html=1;fixedSize=1;" parent="WIyWlLk6GJQsqaUBKTNV-1" vertex="1">
          <mxGeometry x="500" y="570" width="170" height="60" as="geometry" />
        </mxCell>
      </root>
    </mxGraphModel>
  </diagram>
  <diagram id="2uEb_bC5BU9lhCj_n208" name="Сторінка-2">
    <mxGraphModel dx="1313" dy="663" grid="1" gridSize="10" guides="1" tooltips="1" connect="1" arrows="1" fold="1" page="1" pageScale="1" pageWidth="827" pageHeight="1169" math="0" shadow="0">
      <root>
        <mxCell id="0" />
        <mxCell id="1" parent="0" />
        <mxCell id="euz6xQV_wP8x_aC_KC8n-1" style="edgeStyle=orthogonalEdgeStyle;rounded=0;orthogonalLoop=1;jettySize=auto;html=1;entryX=0.5;entryY=0;entryDx=0;entryDy=0;" edge="1" parent="1" source="euz6xQV_wP8x_aC_KC8n-2" target="euz6xQV_wP8x_aC_KC8n-4">
          <mxGeometry relative="1" as="geometry" />
        </mxCell>
        <mxCell id="euz6xQV_wP8x_aC_KC8n-2" value="Старт" style="ellipse;whiteSpace=wrap;html=1;" vertex="1" parent="1">
          <mxGeometry x="400" y="50" width="120" height="80" as="geometry" />
        </mxCell>
        <mxCell id="euz6xQV_wP8x_aC_KC8n-4" value="Підключення бібліотеки iostream" style="rounded=1;whiteSpace=wrap;html=1;" vertex="1" parent="1">
          <mxGeometry x="400" y="150" width="120" height="60" as="geometry" />
        </mxCell>
        <mxCell id="euz6xQV_wP8x_aC_KC8n-20" style="edgeStyle=orthogonalEdgeStyle;rounded=0;orthogonalLoop=1;jettySize=auto;html=1;exitX=0.5;exitY=1;exitDx=0;exitDy=0;entryX=0.5;entryY=0;entryDx=0;entryDy=0;" edge="1" parent="1" source="euz6xQV_wP8x_aC_KC8n-6" target="euz6xQV_wP8x_aC_KC8n-10">
          <mxGeometry relative="1" as="geometry" />
        </mxCell>
        <mxCell id="euz6xQV_wP8x_aC_KC8n-6" value="Створення запитів змінних int m1 та int m2" style="shape=parallelogram;perimeter=parallelogramPerimeter;whiteSpace=wrap;html=1;fixedSize=1;" vertex="1" parent="1">
          <mxGeometry x="330" y="310" width="260" height="60" as="geometry" />
        </mxCell>
        <mxCell id="euz6xQV_wP8x_aC_KC8n-9" style="edgeStyle=orthogonalEdgeStyle;rounded=0;orthogonalLoop=1;jettySize=auto;html=1;exitX=0.5;exitY=1;exitDx=0;exitDy=0;" edge="1" parent="1" source="euz6xQV_wP8x_aC_KC8n-10" target="euz6xQV_wP8x_aC_KC8n-13">
          <mxGeometry relative="1" as="geometry" />
        </mxCell>
        <mxCell id="euz6xQV_wP8x_aC_KC8n-10" value="Обчислення результату за допомогою змінної r1 за поданою формулою r1=n1---m1" style="rounded=1;whiteSpace=wrap;html=1;" vertex="1" parent="1">
          <mxGeometry x="385" y="390" width="150" height="60" as="geometry" />
        </mxCell>
        <mxCell id="euz6xQV_wP8x_aC_KC8n-47" style="edgeStyle=orthogonalEdgeStyle;rounded=0;orthogonalLoop=1;jettySize=auto;html=1;exitX=0.5;exitY=1;exitDx=0;exitDy=0;entryX=0.5;entryY=0;entryDx=0;entryDy=0;" edge="1" parent="1" source="euz6xQV_wP8x_aC_KC8n-13" target="euz6xQV_wP8x_aC_KC8n-21">
          <mxGeometry relative="1" as="geometry" />
        </mxCell>
        <mxCell id="euz6xQV_wP8x_aC_KC8n-13" value="Вивід результату r1" style="shape=parallelogram;perimeter=parallelogramPerimeter;whiteSpace=wrap;html=1;fixedSize=1;" vertex="1" parent="1">
          <mxGeometry x="390" y="470" width="140" height="60" as="geometry" />
        </mxCell>
        <mxCell id="euz6xQV_wP8x_aC_KC8n-14" value="Фініш" style="ellipse;whiteSpace=wrap;html=1;" vertex="1" parent="1">
          <mxGeometry x="400" y="1020" width="120" height="80" as="geometry" />
        </mxCell>
        <mxCell id="euz6xQV_wP8x_aC_KC8n-28" style="edgeStyle=orthogonalEdgeStyle;rounded=0;orthogonalLoop=1;jettySize=auto;html=1;exitX=0.5;exitY=1;exitDx=0;exitDy=0;entryX=0.5;entryY=0;entryDx=0;entryDy=0;" edge="1" parent="1" source="euz6xQV_wP8x_aC_KC8n-21" target="euz6xQV_wP8x_aC_KC8n-26">
          <mxGeometry relative="1" as="geometry" />
        </mxCell>
        <mxCell id="euz6xQV_wP8x_aC_KC8n-21" value="Перевірка умови r2" style="rounded=1;whiteSpace=wrap;html=1;" vertex="1" parent="1">
          <mxGeometry x="400" y="560" width="120" height="60" as="geometry" />
        </mxCell>
        <mxCell id="euz6xQV_wP8x_aC_KC8n-52" style="edgeStyle=orthogonalEdgeStyle;rounded=0;orthogonalLoop=1;jettySize=auto;html=1;exitX=0.5;exitY=1;exitDx=0;exitDy=0;entryX=0.5;entryY=0;entryDx=0;entryDy=0;" edge="1" parent="1" source="euz6xQV_wP8x_aC_KC8n-22" target="euz6xQV_wP8x_aC_KC8n-6">
          <mxGeometry relative="1" as="geometry" />
        </mxCell>
        <mxCell id="euz6xQV_wP8x_aC_KC8n-22" value="Ввід змінних int r1, r2=m1--&amp;lt;n1, r3=n1++&amp;gt;m1" style="shape=parallelogram;perimeter=parallelogramPerimeter;whiteSpace=wrap;html=1;fixedSize=1;" vertex="1" parent="1">
          <mxGeometry x="370" y="230" width="195" height="60" as="geometry" />
        </mxCell>
        <mxCell id="euz6xQV_wP8x_aC_KC8n-33" style="edgeStyle=orthogonalEdgeStyle;rounded=0;orthogonalLoop=1;jettySize=auto;html=1;exitX=0;exitY=0.5;exitDx=0;exitDy=0;entryX=0.5;entryY=0;entryDx=0;entryDy=0;" edge="1" parent="1" source="euz6xQV_wP8x_aC_KC8n-26" target="euz6xQV_wP8x_aC_KC8n-29">
          <mxGeometry relative="1" as="geometry" />
        </mxCell>
        <mxCell id="euz6xQV_wP8x_aC_KC8n-35" style="edgeStyle=orthogonalEdgeStyle;rounded=0;orthogonalLoop=1;jettySize=auto;html=1;exitX=1;exitY=0.5;exitDx=0;exitDy=0;entryX=0.5;entryY=0;entryDx=0;entryDy=0;" edge="1" parent="1" source="euz6xQV_wP8x_aC_KC8n-26" target="euz6xQV_wP8x_aC_KC8n-30">
          <mxGeometry relative="1" as="geometry" />
        </mxCell>
        <mxCell id="euz6xQV_wP8x_aC_KC8n-26" value="Умова дійсна?" style="rhombus;whiteSpace=wrap;html=1;" vertex="1" parent="1">
          <mxGeometry x="420" y="640" width="80" height="80" as="geometry" />
        </mxCell>
        <mxCell id="euz6xQV_wP8x_aC_KC8n-48" style="edgeStyle=orthogonalEdgeStyle;rounded=0;orthogonalLoop=1;jettySize=auto;html=1;entryX=0;entryY=0.5;entryDx=0;entryDy=0;" edge="1" parent="1" source="euz6xQV_wP8x_aC_KC8n-29" target="euz6xQV_wP8x_aC_KC8n-39">
          <mxGeometry relative="1" as="geometry" />
        </mxCell>
        <mxCell id="euz6xQV_wP8x_aC_KC8n-29" value="Вивід r2 = true" style="shape=parallelogram;perimeter=parallelogramPerimeter;whiteSpace=wrap;html=1;fixedSize=1;" vertex="1" parent="1">
          <mxGeometry x="320" y="710" width="120" height="60" as="geometry" />
        </mxCell>
        <mxCell id="euz6xQV_wP8x_aC_KC8n-49" style="edgeStyle=orthogonalEdgeStyle;rounded=0;orthogonalLoop=1;jettySize=auto;html=1;exitX=0.5;exitY=1;exitDx=0;exitDy=0;entryX=1;entryY=0.5;entryDx=0;entryDy=0;" edge="1" parent="1" source="euz6xQV_wP8x_aC_KC8n-30" target="euz6xQV_wP8x_aC_KC8n-39">
          <mxGeometry relative="1" as="geometry" />
        </mxCell>
        <mxCell id="euz6xQV_wP8x_aC_KC8n-30" value="Вивід r2 = false" style="shape=parallelogram;perimeter=parallelogramPerimeter;whiteSpace=wrap;html=1;fixedSize=1;" vertex="1" parent="1">
          <mxGeometry x="480" y="710" width="120" height="60" as="geometry" />
        </mxCell>
        <mxCell id="euz6xQV_wP8x_aC_KC8n-36" value="Так" style="text;html=1;strokeColor=none;fillColor=none;align=center;verticalAlign=middle;whiteSpace=wrap;rounded=0;" vertex="1" parent="1">
          <mxGeometry x="370" y="650" width="60" height="30" as="geometry" />
        </mxCell>
        <mxCell id="euz6xQV_wP8x_aC_KC8n-37" value="Ні" style="text;html=1;strokeColor=none;fillColor=none;align=center;verticalAlign=middle;whiteSpace=wrap;rounded=0;" vertex="1" parent="1">
          <mxGeometry x="495" y="650" width="60" height="30" as="geometry" />
        </mxCell>
        <mxCell id="euz6xQV_wP8x_aC_KC8n-38" style="edgeStyle=orthogonalEdgeStyle;rounded=0;orthogonalLoop=1;jettySize=auto;html=1;exitX=0.5;exitY=1;exitDx=0;exitDy=0;entryX=0.5;entryY=0;entryDx=0;entryDy=0;" edge="1" parent="1" source="euz6xQV_wP8x_aC_KC8n-39" target="euz6xQV_wP8x_aC_KC8n-42">
          <mxGeometry relative="1" as="geometry" />
        </mxCell>
        <mxCell id="euz6xQV_wP8x_aC_KC8n-39" value="Перевірка умови r3" style="rounded=1;whiteSpace=wrap;html=1;" vertex="1" parent="1">
          <mxGeometry x="400" y="800" width="120" height="60" as="geometry" />
        </mxCell>
        <mxCell id="euz6xQV_wP8x_aC_KC8n-40" style="edgeStyle=orthogonalEdgeStyle;rounded=0;orthogonalLoop=1;jettySize=auto;html=1;exitX=0;exitY=0.5;exitDx=0;exitDy=0;entryX=0.5;entryY=0;entryDx=0;entryDy=0;" edge="1" parent="1" source="euz6xQV_wP8x_aC_KC8n-42" target="euz6xQV_wP8x_aC_KC8n-43">
          <mxGeometry relative="1" as="geometry" />
        </mxCell>
        <mxCell id="euz6xQV_wP8x_aC_KC8n-41" style="edgeStyle=orthogonalEdgeStyle;rounded=0;orthogonalLoop=1;jettySize=auto;html=1;exitX=1;exitY=0.5;exitDx=0;exitDy=0;entryX=0.5;entryY=0;entryDx=0;entryDy=0;" edge="1" parent="1" source="euz6xQV_wP8x_aC_KC8n-42" target="euz6xQV_wP8x_aC_KC8n-44">
          <mxGeometry relative="1" as="geometry" />
        </mxCell>
        <mxCell id="euz6xQV_wP8x_aC_KC8n-42" value="Умова дійсна?" style="rhombus;whiteSpace=wrap;html=1;" vertex="1" parent="1">
          <mxGeometry x="420" y="880" width="80" height="80" as="geometry" />
        </mxCell>
        <mxCell id="euz6xQV_wP8x_aC_KC8n-50" style="edgeStyle=orthogonalEdgeStyle;rounded=0;orthogonalLoop=1;jettySize=auto;html=1;entryX=0;entryY=0.5;entryDx=0;entryDy=0;" edge="1" parent="1" source="euz6xQV_wP8x_aC_KC8n-43" target="euz6xQV_wP8x_aC_KC8n-14">
          <mxGeometry relative="1" as="geometry" />
        </mxCell>
        <mxCell id="euz6xQV_wP8x_aC_KC8n-43" value="Вивід r3 = true" style="shape=parallelogram;perimeter=parallelogramPerimeter;whiteSpace=wrap;html=1;fixedSize=1;" vertex="1" parent="1">
          <mxGeometry x="320" y="950" width="120" height="60" as="geometry" />
        </mxCell>
        <mxCell id="euz6xQV_wP8x_aC_KC8n-51" style="edgeStyle=orthogonalEdgeStyle;rounded=0;orthogonalLoop=1;jettySize=auto;html=1;exitX=0.5;exitY=1;exitDx=0;exitDy=0;entryX=1;entryY=0.5;entryDx=0;entryDy=0;" edge="1" parent="1" source="euz6xQV_wP8x_aC_KC8n-44" target="euz6xQV_wP8x_aC_KC8n-14">
          <mxGeometry relative="1" as="geometry" />
        </mxCell>
        <mxCell id="euz6xQV_wP8x_aC_KC8n-44" value="Вивід r3 = false" style="shape=parallelogram;perimeter=parallelogramPerimeter;whiteSpace=wrap;html=1;fixedSize=1;" vertex="1" parent="1">
          <mxGeometry x="480" y="950" width="120" height="60" as="geometry" />
        </mxCell>
        <mxCell id="euz6xQV_wP8x_aC_KC8n-45" value="Так" style="text;html=1;strokeColor=none;fillColor=none;align=center;verticalAlign=middle;whiteSpace=wrap;rounded=0;" vertex="1" parent="1">
          <mxGeometry x="370" y="890" width="60" height="30" as="geometry" />
        </mxCell>
        <mxCell id="euz6xQV_wP8x_aC_KC8n-46" value="Ні" style="text;html=1;strokeColor=none;fillColor=none;align=center;verticalAlign=middle;whiteSpace=wrap;rounded=0;" vertex="1" parent="1">
          <mxGeometry x="495" y="890" width="60" height="30" as="geometry" />
        </mxCell>
        <mxCell id="euz6xQV_wP8x_aC_KC8n-53" style="edgeStyle=orthogonalEdgeStyle;rounded=0;orthogonalLoop=1;jettySize=auto;html=1;exitX=0.5;exitY=1;exitDx=0;exitDy=0;entryX=0.459;entryY=-0.053;entryDx=0;entryDy=0;entryPerimeter=0;" edge="1" parent="1" source="euz6xQV_wP8x_aC_KC8n-4" target="euz6xQV_wP8x_aC_KC8n-22">
          <mxGeometry relative="1" as="geometry" />
        </mxCell>
      </root>
    </mxGraphModel>
  </diagram>
  <diagram id="DP-nKLyv80smx9KNyZJu" name="Сторінка-3">
    <mxGraphModel dx="1167" dy="589" grid="1" gridSize="10" guides="1" tooltips="1" connect="1" arrows="1" fold="1" page="1" pageScale="1" pageWidth="827" pageHeight="1169" math="0" shadow="0">
      <root>
        <mxCell id="0" />
        <mxCell id="1" parent="0" />
        <mxCell id="k7a0KTf7Arlo25S_35Ck-1" style="edgeStyle=orthogonalEdgeStyle;rounded=0;orthogonalLoop=1;jettySize=auto;html=1;entryX=0.5;entryY=0;entryDx=0;entryDy=0;" edge="1" parent="1" source="k7a0KTf7Arlo25S_35Ck-2" target="k7a0KTf7Arlo25S_35Ck-4">
          <mxGeometry relative="1" as="geometry" />
        </mxCell>
        <mxCell id="k7a0KTf7Arlo25S_35Ck-2" value="Старт" style="ellipse;whiteSpace=wrap;html=1;" vertex="1" parent="1">
          <mxGeometry x="349" y="20" width="120" height="80" as="geometry" />
        </mxCell>
        <mxCell id="k7a0KTf7Arlo25S_35Ck-3" style="edgeStyle=orthogonalEdgeStyle;rounded=0;orthogonalLoop=1;jettySize=auto;html=1;entryX=0.5;entryY=0;entryDx=0;entryDy=0;" edge="1" parent="1" source="k7a0KTf7Arlo25S_35Ck-4" target="k7a0KTf7Arlo25S_35Ck-6">
          <mxGeometry relative="1" as="geometry" />
        </mxCell>
        <mxCell id="k7a0KTf7Arlo25S_35Ck-4" value="Підключення бібліотек iostream та cmath" style="rounded=1;whiteSpace=wrap;html=1;" vertex="1" parent="1">
          <mxGeometry x="349" y="120" width="120" height="60" as="geometry" />
        </mxCell>
        <mxCell id="k7a0KTf7Arlo25S_35Ck-5" style="edgeStyle=orthogonalEdgeStyle;rounded=0;orthogonalLoop=1;jettySize=auto;html=1;entryX=0.5;entryY=0;entryDx=0;entryDy=0;" edge="1" parent="1" source="k7a0KTf7Arlo25S_35Ck-6" target="k7a0KTf7Arlo25S_35Ck-8">
          <mxGeometry relative="1" as="geometry" />
        </mxCell>
        <mxCell id="k7a0KTf7Arlo25S_35Ck-6" value="Введення основних змінних &lt;br&gt;double a = 0 та float fac = 1.0" style="shape=parallelogram;perimeter=parallelogramPerimeter;whiteSpace=wrap;html=1;fixedSize=1;" vertex="1" parent="1">
          <mxGeometry x="290" y="200" width="238" height="60" as="geometry" />
        </mxCell>
        <mxCell id="9IYdw0vcxWtPHNO-u6xu-2" style="edgeStyle=orthogonalEdgeStyle;rounded=0;orthogonalLoop=1;jettySize=auto;html=1;exitX=0.5;exitY=1;exitDx=0;exitDy=0;entryX=0.5;entryY=0;entryDx=0;entryDy=0;" edge="1" parent="1" source="k7a0KTf7Arlo25S_35Ck-8" target="9IYdw0vcxWtPHNO-u6xu-1">
          <mxGeometry relative="1" as="geometry" />
        </mxCell>
        <mxCell id="k7a0KTf7Arlo25S_35Ck-8" value="Створення запиту змінної&amp;nbsp; float n" style="shape=parallelogram;perimeter=parallelogramPerimeter;whiteSpace=wrap;html=1;fixedSize=1;" vertex="1" parent="1">
          <mxGeometry x="304.5" y="280" width="209" height="60" as="geometry" />
        </mxCell>
        <mxCell id="OVISFk08wpyimjTRftrX-7" style="edgeStyle=orthogonalEdgeStyle;rounded=0;orthogonalLoop=1;jettySize=auto;html=1;exitX=0.5;exitY=1;exitDx=0;exitDy=0;entryX=0.5;entryY=0;entryDx=0;entryDy=0;" edge="1" parent="1" source="k7a0KTf7Arlo25S_35Ck-10" target="OVISFk08wpyimjTRftrX-4">
          <mxGeometry relative="1" as="geometry" />
        </mxCell>
        <mxCell id="k7a0KTf7Arlo25S_35Ck-10" value="Обчислення результату за поданою формулою&amp;nbsp;a = a+ pow(10, n)/facn" style="rounded=1;whiteSpace=wrap;html=1;" vertex="1" parent="1">
          <mxGeometry x="151" y="730" width="159" height="60" as="geometry" />
        </mxCell>
        <mxCell id="k7a0KTf7Arlo25S_35Ck-14" value="Фініш" style="ellipse;whiteSpace=wrap;html=1;" vertex="1" parent="1">
          <mxGeometry x="404.5" y="910" width="120" height="80" as="geometry" />
        </mxCell>
        <mxCell id="9IYdw0vcxWtPHNO-u6xu-4" style="edgeStyle=orthogonalEdgeStyle;rounded=0;orthogonalLoop=1;jettySize=auto;html=1;exitX=0.5;exitY=1;exitDx=0;exitDy=0;entryX=0.5;entryY=0;entryDx=0;entryDy=0;" edge="1" parent="1" source="9IYdw0vcxWtPHNO-u6xu-1" target="9IYdw0vcxWtPHNO-u6xu-3">
          <mxGeometry relative="1" as="geometry" />
        </mxCell>
        <mxCell id="9IYdw0vcxWtPHNO-u6xu-1" value="Введення змінної i = 0 для циклу for" style="shape=parallelogram;perimeter=parallelogramPerimeter;whiteSpace=wrap;html=1;fixedSize=1;" vertex="1" parent="1">
          <mxGeometry x="336" y="360" width="146" height="60" as="geometry" />
        </mxCell>
        <mxCell id="9IYdw0vcxWtPHNO-u6xu-7" style="edgeStyle=orthogonalEdgeStyle;rounded=0;orthogonalLoop=1;jettySize=auto;html=1;exitX=0.5;exitY=1;exitDx=0;exitDy=0;entryX=0.5;entryY=0;entryDx=0;entryDy=0;" edge="1" parent="1" source="9IYdw0vcxWtPHNO-u6xu-3" target="9IYdw0vcxWtPHNO-u6xu-5">
          <mxGeometry relative="1" as="geometry" />
        </mxCell>
        <mxCell id="9IYdw0vcxWtPHNO-u6xu-3" value="Проведення операції facn *= i+1" style="rounded=1;whiteSpace=wrap;html=1;" vertex="1" parent="1">
          <mxGeometry x="349" y="450" width="120" height="60" as="geometry" />
        </mxCell>
        <mxCell id="9IYdw0vcxWtPHNO-u6xu-9" style="edgeStyle=orthogonalEdgeStyle;rounded=0;orthogonalLoop=1;jettySize=auto;html=1;exitX=0.5;exitY=1;exitDx=0;exitDy=0;entryX=0.5;entryY=0;entryDx=0;entryDy=0;" edge="1" parent="1" source="9IYdw0vcxWtPHNO-u6xu-5" target="9IYdw0vcxWtPHNO-u6xu-6">
          <mxGeometry relative="1" as="geometry" />
        </mxCell>
        <mxCell id="9IYdw0vcxWtPHNO-u6xu-5" value="Чи справджується рівність i&amp;lt;n?" style="rhombus;whiteSpace=wrap;html=1;" vertex="1" parent="1">
          <mxGeometry x="283.5" y="530" width="251" height="100" as="geometry" />
        </mxCell>
        <mxCell id="9IYdw0vcxWtPHNO-u6xu-10" style="edgeStyle=orthogonalEdgeStyle;rounded=0;orthogonalLoop=1;jettySize=auto;html=1;exitX=1;exitY=0.5;exitDx=0;exitDy=0;entryX=1;entryY=0.5;entryDx=0;entryDy=0;" edge="1" parent="1" source="9IYdw0vcxWtPHNO-u6xu-6" target="9IYdw0vcxWtPHNO-u6xu-3">
          <mxGeometry relative="1" as="geometry">
            <Array as="points">
              <mxPoint x="550" y="690" />
              <mxPoint x="550" y="480" />
            </Array>
          </mxGeometry>
        </mxCell>
        <mxCell id="9IYdw0vcxWtPHNO-u6xu-6" value="Проведення операції ++i" style="rounded=1;whiteSpace=wrap;html=1;" vertex="1" parent="1">
          <mxGeometry x="349" y="660" width="120" height="60" as="geometry" />
        </mxCell>
        <mxCell id="9IYdw0vcxWtPHNO-u6xu-11" value="Ні" style="text;html=1;strokeColor=none;fillColor=none;align=center;verticalAlign=middle;whiteSpace=wrap;rounded=0;" vertex="1" parent="1">
          <mxGeometry x="409" y="630" width="60" height="30" as="geometry" />
        </mxCell>
        <mxCell id="OVISFk08wpyimjTRftrX-3" style="edgeStyle=orthogonalEdgeStyle;rounded=0;orthogonalLoop=1;jettySize=auto;html=1;exitX=1;exitY=1;exitDx=0;exitDy=0;entryX=0.5;entryY=0;entryDx=0;entryDy=0;" edge="1" parent="1" source="9IYdw0vcxWtPHNO-u6xu-15" target="OVISFk08wpyimjTRftrX-1">
          <mxGeometry relative="1" as="geometry">
            <Array as="points">
              <mxPoint x="231" y="580" />
            </Array>
          </mxGeometry>
        </mxCell>
        <mxCell id="9IYdw0vcxWtPHNO-u6xu-15" value="Так" style="text;html=1;strokeColor=none;fillColor=none;align=center;verticalAlign=middle;whiteSpace=wrap;rounded=0;" vertex="1" parent="1">
          <mxGeometry x="230" y="550" width="60" height="30" as="geometry" />
        </mxCell>
        <mxCell id="9IYdw0vcxWtPHNO-u6xu-18" style="edgeStyle=orthogonalEdgeStyle;rounded=0;orthogonalLoop=1;jettySize=auto;html=1;exitX=0.5;exitY=1;exitDx=0;exitDy=0;entryX=0.5;entryY=0;entryDx=0;entryDy=0;" edge="1" parent="1" source="9IYdw0vcxWtPHNO-u6xu-16" target="k7a0KTf7Arlo25S_35Ck-14">
          <mxGeometry relative="1" as="geometry" />
        </mxCell>
        <mxCell id="9IYdw0vcxWtPHNO-u6xu-16" value="Вивід результату а" style="shape=parallelogram;perimeter=parallelogramPerimeter;whiteSpace=wrap;html=1;fixedSize=1;" vertex="1" parent="1">
          <mxGeometry x="394.5" y="830" width="140" height="60" as="geometry" />
        </mxCell>
        <mxCell id="OVISFk08wpyimjTRftrX-6" style="edgeStyle=orthogonalEdgeStyle;rounded=0;orthogonalLoop=1;jettySize=auto;html=1;exitX=0.5;exitY=1;exitDx=0;exitDy=0;entryX=0.5;entryY=0;entryDx=0;entryDy=0;" edge="1" parent="1" source="OVISFk08wpyimjTRftrX-1" target="k7a0KTf7Arlo25S_35Ck-10">
          <mxGeometry relative="1" as="geometry" />
        </mxCell>
        <mxCell id="OVISFk08wpyimjTRftrX-1" value="Введення змінної i = 0 для циклу for" style="shape=parallelogram;perimeter=parallelogramPerimeter;whiteSpace=wrap;html=1;fixedSize=1;" vertex="1" parent="1">
          <mxGeometry x="157.5" y="650" width="146" height="60" as="geometry" />
        </mxCell>
        <mxCell id="OVISFk08wpyimjTRftrX-8" style="edgeStyle=orthogonalEdgeStyle;rounded=0;orthogonalLoop=1;jettySize=auto;html=1;exitX=0.5;exitY=1;exitDx=0;exitDy=0;" edge="1" parent="1" source="OVISFk08wpyimjTRftrX-4" target="OVISFk08wpyimjTRftrX-5">
          <mxGeometry relative="1" as="geometry" />
        </mxCell>
        <mxCell id="OVISFk08wpyimjTRftrX-11" style="edgeStyle=orthogonalEdgeStyle;rounded=0;orthogonalLoop=1;jettySize=auto;html=1;exitX=1;exitY=0.5;exitDx=0;exitDy=0;entryX=0;entryY=0.5;entryDx=0;entryDy=0;" edge="1" parent="1" source="OVISFk08wpyimjTRftrX-4" target="9IYdw0vcxWtPHNO-u6xu-16">
          <mxGeometry relative="1" as="geometry" />
        </mxCell>
        <mxCell id="OVISFk08wpyimjTRftrX-4" value="Чи справджується рівність i&amp;lt;n?" style="rhombus;whiteSpace=wrap;html=1;" vertex="1" parent="1">
          <mxGeometry x="105" y="810" width="251" height="100" as="geometry" />
        </mxCell>
        <mxCell id="OVISFk08wpyimjTRftrX-9" style="edgeStyle=orthogonalEdgeStyle;rounded=0;orthogonalLoop=1;jettySize=auto;html=1;exitX=0;exitY=0.5;exitDx=0;exitDy=0;entryX=0;entryY=0.5;entryDx=0;entryDy=0;" edge="1" parent="1" source="OVISFk08wpyimjTRftrX-5" target="k7a0KTf7Arlo25S_35Ck-10">
          <mxGeometry relative="1" as="geometry">
            <Array as="points">
              <mxPoint x="80" y="970" />
              <mxPoint x="80" y="760" />
            </Array>
          </mxGeometry>
        </mxCell>
        <mxCell id="OVISFk08wpyimjTRftrX-5" value="Проведення операції ++i" style="rounded=1;whiteSpace=wrap;html=1;" vertex="1" parent="1">
          <mxGeometry x="170.5" y="940" width="120" height="60" as="geometry" />
        </mxCell>
        <mxCell id="OVISFk08wpyimjTRftrX-10" value="Ні" style="text;html=1;strokeColor=none;fillColor=none;align=center;verticalAlign=middle;whiteSpace=wrap;rounded=0;" vertex="1" parent="1">
          <mxGeometry x="223.5" y="910" width="60" height="30" as="geometry" />
        </mxCell>
        <mxCell id="OVISFk08wpyimjTRftrX-12" value="Так" style="text;html=1;strokeColor=none;fillColor=none;align=center;verticalAlign=middle;whiteSpace=wrap;rounded=0;" vertex="1" parent="1">
          <mxGeometry x="344.5" y="830" width="60" height="30" as="geometry" />
        </mxCell>
      </root>
    </mxGraphModel>
  </diagram>
  <diagram id="sz3TNhG4dzwlPRZvDM1L" name="Сторінка-4">
    <mxGraphModel dx="1050" dy="542" grid="1" gridSize="10" guides="1" tooltips="1" connect="1" arrows="1" fold="1" page="1" pageScale="1" pageWidth="827" pageHeight="1169" math="0" shadow="0">
      <root>
        <mxCell id="0" />
        <mxCell id="1" parent="0" />
        <mxCell id="QSnwgAFN-fOXHu-3qmsS-1" style="edgeStyle=orthogonalEdgeStyle;rounded=0;orthogonalLoop=1;jettySize=auto;html=1;entryX=0.5;entryY=0;entryDx=0;entryDy=0;" parent="1" source="QSnwgAFN-fOXHu-3qmsS-2" target="QSnwgAFN-fOXHu-3qmsS-4" edge="1">
          <mxGeometry relative="1" as="geometry" />
        </mxCell>
        <mxCell id="QSnwgAFN-fOXHu-3qmsS-2" value="Старт" style="ellipse;whiteSpace=wrap;html=1;" parent="1" vertex="1">
          <mxGeometry x="349" y="30" width="120" height="80" as="geometry" />
        </mxCell>
        <mxCell id="QSnwgAFN-fOXHu-3qmsS-3" style="edgeStyle=orthogonalEdgeStyle;rounded=0;orthogonalLoop=1;jettySize=auto;html=1;entryX=0.5;entryY=0;entryDx=0;entryDy=0;" parent="1" source="QSnwgAFN-fOXHu-3qmsS-4" target="QSnwgAFN-fOXHu-3qmsS-6" edge="1">
          <mxGeometry relative="1" as="geometry" />
        </mxCell>
        <mxCell id="QSnwgAFN-fOXHu-3qmsS-4" value="Підключення бібліотек iostream та cmath" style="rounded=1;whiteSpace=wrap;html=1;" parent="1" vertex="1">
          <mxGeometry x="349" y="130" width="120" height="60" as="geometry" />
        </mxCell>
        <mxCell id="_62CzAiIgd_zNxfSWGnR-4" style="edgeStyle=orthogonalEdgeStyle;rounded=0;orthogonalLoop=1;jettySize=auto;html=1;exitX=0.5;exitY=1;exitDx=0;exitDy=0;entryX=0.5;entryY=0;entryDx=0;entryDy=0;" parent="1" source="QSnwgAFN-fOXHu-3qmsS-6" target="QSnwgAFN-fOXHu-3qmsS-8" edge="1">
          <mxGeometry relative="1" as="geometry" />
        </mxCell>
        <mxCell id="_62CzAiIgd_zNxfSWGnR-5" style="edgeStyle=orthogonalEdgeStyle;rounded=0;orthogonalLoop=1;jettySize=auto;html=1;exitX=0.5;exitY=1;exitDx=0;exitDy=0;" parent="1" source="QSnwgAFN-fOXHu-3qmsS-6" target="_62CzAiIgd_zNxfSWGnR-3" edge="1">
          <mxGeometry relative="1" as="geometry" />
        </mxCell>
        <mxCell id="QSnwgAFN-fOXHu-3qmsS-6" value="Введення основних змінних long log int H, M, hi, mi" style="shape=parallelogram;perimeter=parallelogramPerimeter;whiteSpace=wrap;html=1;fixedSize=1;" parent="1" vertex="1">
          <mxGeometry x="286" y="210" width="246" height="60" as="geometry" />
        </mxCell>
        <mxCell id="qCO2Aj8Y_tfdhxAZIhjE-3" style="edgeStyle=orthogonalEdgeStyle;rounded=0;orthogonalLoop=1;jettySize=auto;html=1;exitX=0.5;exitY=1;exitDx=0;exitDy=0;entryX=0.5;entryY=0;entryDx=0;entryDy=0;" parent="1" source="QSnwgAFN-fOXHu-3qmsS-8" target="QSnwgAFN-fOXHu-3qmsS-19" edge="1">
          <mxGeometry relative="1" as="geometry" />
        </mxCell>
        <mxCell id="QSnwgAFN-fOXHu-3qmsS-8" value="Створення запиту на змінну H" style="shape=parallelogram;perimeter=parallelogramPerimeter;whiteSpace=wrap;html=1;fixedSize=1;" parent="1" vertex="1">
          <mxGeometry x="157.5" y="310" width="211.5" height="60" as="geometry" />
        </mxCell>
        <mxCell id="QSnwgAFN-fOXHu-3qmsS-14" value="Фініш" style="ellipse;whiteSpace=wrap;html=1;" parent="1" vertex="1">
          <mxGeometry x="362" y="1370" width="120" height="80" as="geometry" />
        </mxCell>
        <mxCell id="qCO2Aj8Y_tfdhxAZIhjE-1" style="edgeStyle=orthogonalEdgeStyle;rounded=0;orthogonalLoop=1;jettySize=auto;html=1;exitX=0;exitY=0.5;exitDx=0;exitDy=0;entryX=0.5;entryY=0;entryDx=0;entryDy=0;" parent="1" source="QSnwgAFN-fOXHu-3qmsS-19" edge="1">
          <mxGeometry relative="1" as="geometry">
            <mxPoint x="120" y="480" as="targetPoint" />
          </mxGeometry>
        </mxCell>
        <mxCell id="qCO2Aj8Y_tfdhxAZIhjE-13" style="edgeStyle=orthogonalEdgeStyle;rounded=0;orthogonalLoop=1;jettySize=auto;html=1;exitX=1;exitY=0.5;exitDx=0;exitDy=0;entryX=0.5;entryY=0;entryDx=0;entryDy=0;" parent="1" source="QSnwgAFN-fOXHu-3qmsS-19" target="qCO2Aj8Y_tfdhxAZIhjE-10" edge="1">
          <mxGeometry relative="1" as="geometry" />
        </mxCell>
        <mxCell id="QSnwgAFN-fOXHu-3qmsS-19" value="Чи входить змінна у проміжки 1&amp;lt;=H&amp;lt;=10^12?" style="rhombus;whiteSpace=wrap;html=1;" parent="1" vertex="1">
          <mxGeometry x="139.88" y="400" width="246.75" height="90" as="geometry" />
        </mxCell>
        <mxCell id="em57Xx-rsOZotYWQatbS-28" style="edgeStyle=orthogonalEdgeStyle;rounded=0;orthogonalLoop=1;jettySize=auto;html=1;exitX=0.5;exitY=1;exitDx=0;exitDy=0;entryX=0.5;entryY=0;entryDx=0;entryDy=0;" parent="1" source="_62CzAiIgd_zNxfSWGnR-3" target="qCO2Aj8Y_tfdhxAZIhjE-5" edge="1">
          <mxGeometry relative="1" as="geometry" />
        </mxCell>
        <mxCell id="_62CzAiIgd_zNxfSWGnR-3" value="Створення запиту на змінну M" style="shape=parallelogram;perimeter=parallelogramPerimeter;whiteSpace=wrap;html=1;fixedSize=1;" parent="1" vertex="1">
          <mxGeometry x="447.63" y="310" width="211.5" height="60" as="geometry" />
        </mxCell>
        <mxCell id="qCO2Aj8Y_tfdhxAZIhjE-2" style="edgeStyle=orthogonalEdgeStyle;rounded=0;orthogonalLoop=1;jettySize=auto;html=1;exitX=0.5;exitY=1;exitDx=0;exitDy=0;entryX=0;entryY=0.5;entryDx=0;entryDy=0;" parent="1" target="QSnwgAFN-fOXHu-3qmsS-8" edge="1">
          <mxGeometry relative="1" as="geometry">
            <mxPoint x="120" y="540" as="sourcePoint" />
            <Array as="points">
              <mxPoint x="120" y="560" />
              <mxPoint x="40" y="560" />
              <mxPoint x="40" y="340" />
            </Array>
          </mxGeometry>
        </mxCell>
        <mxCell id="qCO2Aj8Y_tfdhxAZIhjE-4" value="Ні" style="text;html=1;strokeColor=none;fillColor=none;align=center;verticalAlign=middle;whiteSpace=wrap;rounded=0;" parent="1" vertex="1">
          <mxGeometry x="100" y="410" width="60" height="30" as="geometry" />
        </mxCell>
        <mxCell id="qCO2Aj8Y_tfdhxAZIhjE-7" style="edgeStyle=orthogonalEdgeStyle;rounded=0;orthogonalLoop=1;jettySize=auto;html=1;exitX=1;exitY=0.5;exitDx=0;exitDy=0;entryX=0.5;entryY=0;entryDx=0;entryDy=0;" parent="1" source="qCO2Aj8Y_tfdhxAZIhjE-5" edge="1">
          <mxGeometry relative="1" as="geometry">
            <mxPoint x="697.6300000000001" y="480" as="targetPoint" />
          </mxGeometry>
        </mxCell>
        <mxCell id="qCO2Aj8Y_tfdhxAZIhjE-14" style="edgeStyle=orthogonalEdgeStyle;rounded=0;orthogonalLoop=1;jettySize=auto;html=1;exitX=0;exitY=0.5;exitDx=0;exitDy=0;entryX=0.5;entryY=0;entryDx=0;entryDy=0;" parent="1" source="qCO2Aj8Y_tfdhxAZIhjE-5" target="qCO2Aj8Y_tfdhxAZIhjE-10" edge="1">
          <mxGeometry relative="1" as="geometry" />
        </mxCell>
        <mxCell id="qCO2Aj8Y_tfdhxAZIhjE-5" value="Чи входить змінна у проміжки 1&amp;lt;=M&amp;lt;=10^12?" style="rhombus;whiteSpace=wrap;html=1;" parent="1" vertex="1">
          <mxGeometry x="430" y="400" width="246.75" height="90" as="geometry" />
        </mxCell>
        <mxCell id="qCO2Aj8Y_tfdhxAZIhjE-8" style="edgeStyle=orthogonalEdgeStyle;rounded=0;orthogonalLoop=1;jettySize=auto;html=1;exitX=0.5;exitY=1;exitDx=0;exitDy=0;entryX=1;entryY=0.5;entryDx=0;entryDy=0;" parent="1" target="_62CzAiIgd_zNxfSWGnR-3" edge="1">
          <mxGeometry relative="1" as="geometry">
            <mxPoint x="697.6300000000001" y="540" as="sourcePoint" />
            <Array as="points">
              <mxPoint x="697.63" y="560" />
              <mxPoint x="777.63" y="560" />
              <mxPoint x="777.63" y="340" />
            </Array>
          </mxGeometry>
        </mxCell>
        <mxCell id="qCO2Aj8Y_tfdhxAZIhjE-9" value="Ні" style="text;html=1;strokeColor=none;fillColor=none;align=center;verticalAlign=middle;whiteSpace=wrap;rounded=0;" parent="1" vertex="1">
          <mxGeometry x="647.63" y="410" width="60" height="30" as="geometry" />
        </mxCell>
        <mxCell id="em57Xx-rsOZotYWQatbS-2" style="edgeStyle=orthogonalEdgeStyle;rounded=0;orthogonalLoop=1;jettySize=auto;html=1;exitX=0.5;exitY=1;exitDx=0;exitDy=0;entryX=0.5;entryY=0;entryDx=0;entryDy=0;" parent="1" source="qCO2Aj8Y_tfdhxAZIhjE-10" target="em57Xx-rsOZotYWQatbS-1" edge="1">
          <mxGeometry relative="1" as="geometry" />
        </mxCell>
        <mxCell id="qCO2Aj8Y_tfdhxAZIhjE-10" value="Вивід: &quot;Casting a spell three times&quot;" style="shape=parallelogram;perimeter=parallelogramPerimeter;whiteSpace=wrap;html=1;fixedSize=1;" parent="1" vertex="1">
          <mxGeometry x="303.25" y="510" width="211.5" height="60" as="geometry" />
        </mxCell>
        <mxCell id="qCO2Aj8Y_tfdhxAZIhjE-15" value="Так" style="text;html=1;strokeColor=none;fillColor=none;align=center;verticalAlign=middle;whiteSpace=wrap;rounded=0;" parent="1" vertex="1">
          <mxGeometry x="379" y="410" width="60" height="30" as="geometry" />
        </mxCell>
        <mxCell id="em57Xx-rsOZotYWQatbS-23" style="edgeStyle=orthogonalEdgeStyle;rounded=0;orthogonalLoop=1;jettySize=auto;html=1;exitX=0.5;exitY=1;exitDx=0;exitDy=0;entryX=0.5;entryY=0;entryDx=0;entryDy=0;" parent="1" source="em57Xx-rsOZotYWQatbS-1" target="em57Xx-rsOZotYWQatbS-6" edge="1">
          <mxGeometry relative="1" as="geometry">
            <Array as="points">
              <mxPoint x="409" y="690" />
              <mxPoint x="268" y="690" />
            </Array>
          </mxGeometry>
        </mxCell>
        <mxCell id="DdkkJUOO6sf2FAzRLm0j-9" style="edgeStyle=orthogonalEdgeStyle;rounded=0;orthogonalLoop=1;jettySize=auto;html=1;exitX=0.5;exitY=1;exitDx=0;exitDy=0;" parent="1" source="em57Xx-rsOZotYWQatbS-1" target="em57Xx-rsOZotYWQatbS-10" edge="1">
          <mxGeometry relative="1" as="geometry">
            <Array as="points">
              <mxPoint x="409" y="690" />
              <mxPoint x="558" y="690" />
            </Array>
          </mxGeometry>
        </mxCell>
        <mxCell id="em57Xx-rsOZotYWQatbS-1" value="Введення змінної i = 0 для циклу for" style="shape=parallelogram;perimeter=parallelogramPerimeter;whiteSpace=wrap;html=1;fixedSize=1;" parent="1" vertex="1">
          <mxGeometry x="336" y="590" width="146" height="60" as="geometry" />
        </mxCell>
        <mxCell id="em57Xx-rsOZotYWQatbS-5" style="edgeStyle=orthogonalEdgeStyle;rounded=0;orthogonalLoop=1;jettySize=auto;html=1;exitX=0.5;exitY=1;exitDx=0;exitDy=0;entryX=0.5;entryY=0;entryDx=0;entryDy=0;" parent="1" source="em57Xx-rsOZotYWQatbS-6" target="em57Xx-rsOZotYWQatbS-9" edge="1">
          <mxGeometry relative="1" as="geometry" />
        </mxCell>
        <mxCell id="em57Xx-rsOZotYWQatbS-6" value="Створення запиту на змінну hi" style="shape=parallelogram;perimeter=parallelogramPerimeter;whiteSpace=wrap;html=1;fixedSize=1;" parent="1" vertex="1">
          <mxGeometry x="162.44" y="710" width="211.5" height="60" as="geometry" />
        </mxCell>
        <mxCell id="em57Xx-rsOZotYWQatbS-26" style="edgeStyle=orthogonalEdgeStyle;rounded=0;orthogonalLoop=1;jettySize=auto;html=1;exitX=0.5;exitY=1;exitDx=0;exitDy=0;entryX=0.5;entryY=0;entryDx=0;entryDy=0;" parent="1" source="em57Xx-rsOZotYWQatbS-9" target="em57Xx-rsOZotYWQatbS-24" edge="1">
          <mxGeometry relative="1" as="geometry" />
        </mxCell>
        <mxCell id="em57Xx-rsOZotYWQatbS-32" style="edgeStyle=orthogonalEdgeStyle;rounded=0;orthogonalLoop=1;jettySize=auto;html=1;exitX=0;exitY=0.5;exitDx=0;exitDy=0;entryX=0.5;entryY=0;entryDx=0;entryDy=0;" parent="1" source="em57Xx-rsOZotYWQatbS-9" edge="1">
          <mxGeometry relative="1" as="geometry">
            <mxPoint x="124.94000000000005" y="880" as="targetPoint" />
          </mxGeometry>
        </mxCell>
        <mxCell id="em57Xx-rsOZotYWQatbS-9" value="Чи входить змінна у проміжки 0&amp;lt;=hi&amp;lt;=10^12?" style="rhombus;whiteSpace=wrap;html=1;" parent="1" vertex="1">
          <mxGeometry x="144.82" y="800" width="246.75" height="90" as="geometry" />
        </mxCell>
        <mxCell id="em57Xx-rsOZotYWQatbS-27" style="edgeStyle=orthogonalEdgeStyle;rounded=0;orthogonalLoop=1;jettySize=auto;html=1;exitX=0.5;exitY=1;exitDx=0;exitDy=0;entryX=0.5;entryY=0;entryDx=0;entryDy=0;" parent="1" source="em57Xx-rsOZotYWQatbS-10" target="em57Xx-rsOZotYWQatbS-16" edge="1">
          <mxGeometry relative="1" as="geometry" />
        </mxCell>
        <mxCell id="em57Xx-rsOZotYWQatbS-10" value="Створення запиту на змінну mi" style="shape=parallelogram;perimeter=parallelogramPerimeter;whiteSpace=wrap;html=1;fixedSize=1;" parent="1" vertex="1">
          <mxGeometry x="452.57" y="710" width="211.5" height="60" as="geometry" />
        </mxCell>
        <mxCell id="em57Xx-rsOZotYWQatbS-11" style="edgeStyle=orthogonalEdgeStyle;rounded=0;orthogonalLoop=1;jettySize=auto;html=1;exitX=0.5;exitY=1;exitDx=0;exitDy=0;entryX=0;entryY=0.5;entryDx=0;entryDy=0;" parent="1" target="em57Xx-rsOZotYWQatbS-6" edge="1">
          <mxGeometry relative="1" as="geometry">
            <Array as="points">
              <mxPoint x="124.94" y="960" />
              <mxPoint x="44.94" y="960" />
              <mxPoint x="44.94" y="740" />
            </Array>
            <mxPoint x="124.94000000000005" y="940" as="sourcePoint" />
          </mxGeometry>
        </mxCell>
        <mxCell id="em57Xx-rsOZotYWQatbS-13" value="Ні" style="text;html=1;strokeColor=none;fillColor=none;align=center;verticalAlign=middle;whiteSpace=wrap;rounded=0;" parent="1" vertex="1">
          <mxGeometry x="104.94" y="810" width="60" height="30" as="geometry" />
        </mxCell>
        <mxCell id="em57Xx-rsOZotYWQatbS-14" style="edgeStyle=orthogonalEdgeStyle;rounded=0;orthogonalLoop=1;jettySize=auto;html=1;exitX=1;exitY=0.5;exitDx=0;exitDy=0;entryX=0.5;entryY=0;entryDx=0;entryDy=0;" parent="1" source="em57Xx-rsOZotYWQatbS-16" edge="1">
          <mxGeometry relative="1" as="geometry">
            <mxPoint x="702.5700000000002" y="880" as="targetPoint" />
          </mxGeometry>
        </mxCell>
        <mxCell id="em57Xx-rsOZotYWQatbS-29" style="edgeStyle=orthogonalEdgeStyle;rounded=0;orthogonalLoop=1;jettySize=auto;html=1;exitX=0.5;exitY=1;exitDx=0;exitDy=0;entryX=0.5;entryY=0;entryDx=0;entryDy=0;" parent="1" source="em57Xx-rsOZotYWQatbS-16" target="em57Xx-rsOZotYWQatbS-25" edge="1">
          <mxGeometry relative="1" as="geometry" />
        </mxCell>
        <mxCell id="em57Xx-rsOZotYWQatbS-16" value="Чи входить змінна у проміжки 0&amp;lt;=mi&amp;lt;=10^12?" style="rhombus;whiteSpace=wrap;html=1;" parent="1" vertex="1">
          <mxGeometry x="434.94" y="800" width="246.75" height="90" as="geometry" />
        </mxCell>
        <mxCell id="em57Xx-rsOZotYWQatbS-17" style="edgeStyle=orthogonalEdgeStyle;rounded=0;orthogonalLoop=1;jettySize=auto;html=1;exitX=0.5;exitY=1;exitDx=0;exitDy=0;entryX=1;entryY=0.5;entryDx=0;entryDy=0;" parent="1" target="em57Xx-rsOZotYWQatbS-10" edge="1">
          <mxGeometry relative="1" as="geometry">
            <Array as="points">
              <mxPoint x="702.57" y="960" />
              <mxPoint x="782.57" y="960" />
              <mxPoint x="782.57" y="740" />
            </Array>
            <mxPoint x="702.5700000000002" y="940" as="sourcePoint" />
          </mxGeometry>
        </mxCell>
        <mxCell id="em57Xx-rsOZotYWQatbS-19" value="Ні" style="text;html=1;strokeColor=none;fillColor=none;align=center;verticalAlign=middle;whiteSpace=wrap;rounded=0;" parent="1" vertex="1">
          <mxGeometry x="652.57" y="810" width="60" height="30" as="geometry" />
        </mxCell>
        <mxCell id="em57Xx-rsOZotYWQatbS-22" value="Так" style="text;html=1;strokeColor=none;fillColor=none;align=center;verticalAlign=middle;whiteSpace=wrap;rounded=0;" parent="1" vertex="1">
          <mxGeometry x="276" y="880" width="60" height="30" as="geometry" />
        </mxCell>
        <mxCell id="DdkkJUOO6sf2FAzRLm0j-6" style="edgeStyle=orthogonalEdgeStyle;rounded=0;orthogonalLoop=1;jettySize=auto;html=1;exitX=0.5;exitY=1;exitDx=0;exitDy=0;entryX=0.5;entryY=0;entryDx=0;entryDy=0;" parent="1" source="em57Xx-rsOZotYWQatbS-24" target="DdkkJUOO6sf2FAzRLm0j-5" edge="1">
          <mxGeometry relative="1" as="geometry" />
        </mxCell>
        <mxCell id="em57Xx-rsOZotYWQatbS-24" value="H-=hi" style="rounded=1;whiteSpace=wrap;html=1;" parent="1" vertex="1">
          <mxGeometry x="208" y="910" width="120" height="60" as="geometry" />
        </mxCell>
        <mxCell id="DdkkJUOO6sf2FAzRLm0j-7" style="edgeStyle=orthogonalEdgeStyle;rounded=0;orthogonalLoop=1;jettySize=auto;html=1;exitX=0.5;exitY=1;exitDx=0;exitDy=0;entryX=0.5;entryY=0;entryDx=0;entryDy=0;" parent="1" source="em57Xx-rsOZotYWQatbS-25" target="DdkkJUOO6sf2FAzRLm0j-5" edge="1">
          <mxGeometry relative="1" as="geometry" />
        </mxCell>
        <mxCell id="em57Xx-rsOZotYWQatbS-25" value="M-=mi" style="rounded=1;whiteSpace=wrap;html=1;" parent="1" vertex="1">
          <mxGeometry x="498" y="910" width="120" height="60" as="geometry" />
        </mxCell>
        <mxCell id="em57Xx-rsOZotYWQatbS-30" value="Так" style="text;html=1;strokeColor=none;fillColor=none;align=center;verticalAlign=middle;whiteSpace=wrap;rounded=0;" parent="1" vertex="1">
          <mxGeometry x="498" y="880" width="60" height="30" as="geometry" />
        </mxCell>
        <mxCell id="DdkkJUOO6sf2FAzRLm0j-1" style="edgeStyle=orthogonalEdgeStyle;rounded=0;orthogonalLoop=1;jettySize=auto;html=1;exitX=0.5;exitY=1;exitDx=0;exitDy=0;entryX=0.5;entryY=0;entryDx=0;entryDy=0;" parent="1" source="DdkkJUOO6sf2FAzRLm0j-2" target="DdkkJUOO6sf2FAzRLm0j-3" edge="1">
          <mxGeometry relative="1" as="geometry" />
        </mxCell>
        <mxCell id="DdkkJUOO6sf2FAzRLm0j-18" style="edgeStyle=orthogonalEdgeStyle;rounded=0;orthogonalLoop=1;jettySize=auto;html=1;exitX=0;exitY=0.5;exitDx=0;exitDy=0;entryX=0.5;entryY=0;entryDx=0;entryDy=0;" parent="1" source="DdkkJUOO6sf2FAzRLm0j-2" target="DdkkJUOO6sf2FAzRLm0j-17" edge="1">
          <mxGeometry relative="1" as="geometry" />
        </mxCell>
        <mxCell id="DdkkJUOO6sf2FAzRLm0j-2" value="Чи справджується рівність i&amp;lt;3?" style="rhombus;whiteSpace=wrap;html=1;" parent="1" vertex="1">
          <mxGeometry x="511.57" y="1080" width="251" height="100" as="geometry" />
        </mxCell>
        <mxCell id="DdkkJUOO6sf2FAzRLm0j-11" style="edgeStyle=orthogonalEdgeStyle;rounded=0;orthogonalLoop=1;jettySize=auto;html=1;exitX=1;exitY=0.5;exitDx=0;exitDy=0;" parent="1" source="DdkkJUOO6sf2FAzRLm0j-3" edge="1">
          <mxGeometry relative="1" as="geometry">
            <mxPoint x="410" y="670" as="targetPoint" />
            <Array as="points">
              <mxPoint x="810" y="1230" />
              <mxPoint x="810" y="670" />
            </Array>
          </mxGeometry>
        </mxCell>
        <mxCell id="DdkkJUOO6sf2FAzRLm0j-3" value="Проведення операції ++i" style="rounded=1;whiteSpace=wrap;html=1;" parent="1" vertex="1">
          <mxGeometry x="577.0699999999999" y="1200" width="120" height="60" as="geometry" />
        </mxCell>
        <mxCell id="DdkkJUOO6sf2FAzRLm0j-4" value="Ні" style="text;html=1;strokeColor=none;fillColor=none;align=center;verticalAlign=middle;whiteSpace=wrap;rounded=0;" parent="1" vertex="1">
          <mxGeometry x="637.0699999999999" y="1170" width="60" height="30" as="geometry" />
        </mxCell>
        <mxCell id="DdkkJUOO6sf2FAzRLm0j-8" style="edgeStyle=orthogonalEdgeStyle;rounded=0;orthogonalLoop=1;jettySize=auto;html=1;exitX=1;exitY=0.5;exitDx=0;exitDy=0;entryX=0.5;entryY=0;entryDx=0;entryDy=0;" parent="1" source="DdkkJUOO6sf2FAzRLm0j-5" target="DdkkJUOO6sf2FAzRLm0j-2" edge="1">
          <mxGeometry relative="1" as="geometry" />
        </mxCell>
        <mxCell id="DdkkJUOO6sf2FAzRLm0j-15" style="edgeStyle=orthogonalEdgeStyle;rounded=0;orthogonalLoop=1;jettySize=auto;html=1;exitX=0;exitY=0.5;exitDx=0;exitDy=0;" parent="1" source="DdkkJUOO6sf2FAzRLm0j-5" target="DdkkJUOO6sf2FAzRLm0j-14" edge="1">
          <mxGeometry relative="1" as="geometry" />
        </mxCell>
        <mxCell id="DdkkJUOO6sf2FAzRLm0j-5" value="Чи справджуються рівності hi&amp;gt;0 та mi&amp;gt;0 одночасно?" style="rhombus;whiteSpace=wrap;html=1;" parent="1" vertex="1">
          <mxGeometry x="338" y="1010" width="152" height="100" as="geometry" />
        </mxCell>
        <mxCell id="DdkkJUOO6sf2FAzRLm0j-12" value="Ні" style="text;html=1;strokeColor=none;fillColor=none;align=center;verticalAlign=middle;whiteSpace=wrap;rounded=0;" parent="1" vertex="1">
          <mxGeometry x="469" y="1030" width="60" height="30" as="geometry" />
        </mxCell>
        <mxCell id="DdkkJUOO6sf2FAzRLm0j-27" style="edgeStyle=orthogonalEdgeStyle;rounded=0;orthogonalLoop=1;jettySize=auto;html=1;exitX=0.5;exitY=1;exitDx=0;exitDy=0;entryX=0;entryY=0.5;entryDx=0;entryDy=0;" parent="1" source="DdkkJUOO6sf2FAzRLm0j-14" target="QSnwgAFN-fOXHu-3qmsS-14" edge="1">
          <mxGeometry relative="1" as="geometry" />
        </mxCell>
        <mxCell id="DdkkJUOO6sf2FAzRLm0j-14" value="Вивід &quot;NO&quot;" style="shape=parallelogram;perimeter=parallelogramPerimeter;whiteSpace=wrap;html=1;fixedSize=1;" parent="1" vertex="1">
          <mxGeometry x="169" y="1310" width="120" height="60" as="geometry" />
        </mxCell>
        <mxCell id="DdkkJUOO6sf2FAzRLm0j-16" value="Так" style="text;html=1;strokeColor=none;fillColor=none;align=center;verticalAlign=middle;whiteSpace=wrap;rounded=0;" parent="1" vertex="1">
          <mxGeometry x="289" y="1030" width="60" height="30" as="geometry" />
        </mxCell>
        <mxCell id="DdkkJUOO6sf2FAzRLm0j-21" style="edgeStyle=orthogonalEdgeStyle;rounded=0;orthogonalLoop=1;jettySize=auto;html=1;entryX=0.5;entryY=0;entryDx=0;entryDy=0;" parent="1" source="DdkkJUOO6sf2FAzRLm0j-17" target="DdkkJUOO6sf2FAzRLm0j-14" edge="1">
          <mxGeometry relative="1" as="geometry" />
        </mxCell>
        <mxCell id="DdkkJUOO6sf2FAzRLm0j-17" value="Чи справджується рівність H&amp;gt;0 та M&amp;gt;0?" style="rhombus;whiteSpace=wrap;html=1;" parent="1" vertex="1">
          <mxGeometry x="337.99999999999994" y="1240" width="251" height="100" as="geometry" />
        </mxCell>
        <mxCell id="DdkkJUOO6sf2FAzRLm0j-20" value="Так" style="text;html=1;strokeColor=none;fillColor=none;align=center;verticalAlign=middle;whiteSpace=wrap;rounded=0;" parent="1" vertex="1">
          <mxGeometry x="472" y="1100" width="60" height="30" as="geometry" />
        </mxCell>
        <mxCell id="DdkkJUOO6sf2FAzRLm0j-22" value="Ні" style="text;html=1;strokeColor=none;fillColor=none;align=center;verticalAlign=middle;whiteSpace=wrap;rounded=0;" parent="1" vertex="1">
          <mxGeometry x="309" y="1260" width="60" height="30" as="geometry" />
        </mxCell>
        <mxCell id="DdkkJUOO6sf2FAzRLm0j-28" style="edgeStyle=orthogonalEdgeStyle;rounded=0;orthogonalLoop=1;jettySize=auto;html=1;exitX=0.5;exitY=1;exitDx=0;exitDy=0;entryX=1;entryY=0.5;entryDx=0;entryDy=0;" parent="1" source="DdkkJUOO6sf2FAzRLm0j-23" target="QSnwgAFN-fOXHu-3qmsS-14" edge="1">
          <mxGeometry relative="1" as="geometry" />
        </mxCell>
        <mxCell id="DdkkJUOO6sf2FAzRLm0j-23" value="Вивід &quot;YES&quot;" style="shape=parallelogram;perimeter=parallelogramPerimeter;whiteSpace=wrap;html=1;fixedSize=1;" parent="1" vertex="1">
          <mxGeometry x="561.69" y="1310" width="120" height="60" as="geometry" />
        </mxCell>
        <mxCell id="DdkkJUOO6sf2FAzRLm0j-25" style="edgeStyle=orthogonalEdgeStyle;rounded=0;orthogonalLoop=1;jettySize=auto;html=1;exitX=0.25;exitY=1;exitDx=0;exitDy=0;entryX=0.5;entryY=0;entryDx=0;entryDy=0;" parent="1" source="DdkkJUOO6sf2FAzRLm0j-24" target="DdkkJUOO6sf2FAzRLm0j-23" edge="1">
          <mxGeometry relative="1" as="geometry">
            <Array as="points">
              <mxPoint x="622" y="1290" />
            </Array>
          </mxGeometry>
        </mxCell>
        <mxCell id="DdkkJUOO6sf2FAzRLm0j-24" value="Так" style="text;html=1;strokeColor=none;fillColor=none;align=center;verticalAlign=middle;whiteSpace=wrap;rounded=0;" parent="1" vertex="1">
          <mxGeometry x="577.0699999999999" y="1260" width="60" height="30" as="geometry" />
        </mxCell>
        <mxCell id="9sP6ITOZ5EhVncEAofOP-1" value="Виведення тексту &lt;br&gt;про помилку" style="shape=parallelogram;perimeter=parallelogramPerimeter;whiteSpace=wrap;html=1;fixedSize=1;" parent="1" vertex="1">
          <mxGeometry x="60" y="880" width="130" height="60" as="geometry" />
        </mxCell>
        <mxCell id="9sP6ITOZ5EhVncEAofOP-2" value="Виведення тексту &lt;br&gt;про помилку" style="shape=parallelogram;perimeter=parallelogramPerimeter;whiteSpace=wrap;html=1;fixedSize=1;" parent="1" vertex="1">
          <mxGeometry x="50" y="480" width="130" height="60" as="geometry" />
        </mxCell>
        <mxCell id="9sP6ITOZ5EhVncEAofOP-3" value="Виведення тексту &lt;br&gt;про помилку" style="shape=parallelogram;perimeter=parallelogramPerimeter;whiteSpace=wrap;html=1;fixedSize=1;" parent="1" vertex="1">
          <mxGeometry x="632.57" y="480" width="130" height="60" as="geometry" />
        </mxCell>
        <mxCell id="9sP6ITOZ5EhVncEAofOP-4" value="Виведення тексту &lt;br&gt;про помилку" style="shape=parallelogram;perimeter=parallelogramPerimeter;whiteSpace=wrap;html=1;fixedSize=1;" parent="1" vertex="1">
          <mxGeometry x="637.07" y="880" width="130" height="60" as="geometry" />
        </mxCell>
      </root>
    </mxGraphModel>
  </diagram>
  <diagram id="4qS79XyrMV1-DS7udvma" name="Сторінка-5">
    <mxGraphModel dx="1050" dy="1711" grid="1" gridSize="10" guides="1" tooltips="1" connect="1" arrows="1" fold="1" page="1" pageScale="1" pageWidth="827" pageHeight="1169" math="0" shadow="0">
      <root>
        <mxCell id="0" />
        <mxCell id="1" parent="0" />
        <mxCell id="QSe5wPAz3TM46RVLAXsB-1" style="edgeStyle=orthogonalEdgeStyle;rounded=0;orthogonalLoop=1;jettySize=auto;html=1;entryX=0.5;entryY=0;entryDx=0;entryDy=0;" parent="1" source="QSe5wPAz3TM46RVLAXsB-2" target="QSe5wPAz3TM46RVLAXsB-4" edge="1">
          <mxGeometry relative="1" as="geometry" />
        </mxCell>
        <mxCell id="QSe5wPAz3TM46RVLAXsB-2" value="Старт" style="ellipse;whiteSpace=wrap;html=1;" parent="1" vertex="1">
          <mxGeometry x="349" y="-10" width="120" height="80" as="geometry" />
        </mxCell>
        <mxCell id="QSe5wPAz3TM46RVLAXsB-76" style="edgeStyle=orthogonalEdgeStyle;rounded=0;orthogonalLoop=1;jettySize=auto;html=1;exitX=0.5;exitY=1;exitDx=0;exitDy=0;entryX=0.5;entryY=0;entryDx=0;entryDy=0;" parent="1" source="QSe5wPAz3TM46RVLAXsB-4" target="QSe5wPAz3TM46RVLAXsB-74" edge="1">
          <mxGeometry relative="1" as="geometry" />
        </mxCell>
        <mxCell id="QSe5wPAz3TM46RVLAXsB-4" value="Підключення бібліотек iostream та vector" style="rounded=1;whiteSpace=wrap;html=1;" parent="1" vertex="1">
          <mxGeometry x="349" y="90" width="120" height="60" as="geometry" />
        </mxCell>
        <mxCell id="QSe5wPAz3TM46RVLAXsB-80" style="edgeStyle=orthogonalEdgeStyle;rounded=0;orthogonalLoop=1;jettySize=auto;html=1;exitX=0.5;exitY=1;exitDx=0;exitDy=0;entryX=0.5;entryY=0;entryDx=0;entryDy=0;" parent="1" source="QSe5wPAz3TM46RVLAXsB-7" target="QSe5wPAz3TM46RVLAXsB-79" edge="1">
          <mxGeometry relative="1" as="geometry" />
        </mxCell>
        <mxCell id="QSe5wPAz3TM46RVLAXsB-7" value="Введення змінної int a" style="shape=parallelogram;perimeter=parallelogramPerimeter;whiteSpace=wrap;html=1;fixedSize=1;" parent="1" vertex="1">
          <mxGeometry x="283" y="250" width="246" height="60" as="geometry" />
        </mxCell>
        <mxCell id="QSe5wPAz3TM46RVLAXsB-11" style="edgeStyle=orthogonalEdgeStyle;rounded=0;orthogonalLoop=1;jettySize=auto;html=1;exitX=0;exitY=0.5;exitDx=0;exitDy=0;entryX=0.5;entryY=0;entryDx=0;entryDy=0;" parent="1" source="QSe5wPAz3TM46RVLAXsB-13" edge="1">
          <mxGeometry relative="1" as="geometry">
            <mxPoint x="260" y="550" as="targetPoint" />
          </mxGeometry>
        </mxCell>
        <mxCell id="QSe5wPAz3TM46RVLAXsB-12" style="edgeStyle=orthogonalEdgeStyle;rounded=0;orthogonalLoop=1;jettySize=auto;html=1;exitX=1;exitY=0.5;exitDx=0;exitDy=0;entryX=0.5;entryY=0;entryDx=0;entryDy=0;" parent="1" source="QSe5wPAz3TM46RVLAXsB-13" edge="1">
          <mxGeometry relative="1" as="geometry">
            <mxPoint x="549.0000000000001" y="580" as="targetPoint" />
          </mxGeometry>
        </mxCell>
        <mxCell id="QSe5wPAz3TM46RVLAXsB-13" value="Чи входить змінна a у значення N?" style="rhombus;whiteSpace=wrap;html=1;" parent="1" vertex="1">
          <mxGeometry x="279.87000000000006" y="480" width="246.75" height="90" as="geometry" />
        </mxCell>
        <mxCell id="QSe5wPAz3TM46RVLAXsB-18" value="Ні" style="text;html=1;strokeColor=none;fillColor=none;align=center;verticalAlign=middle;whiteSpace=wrap;rounded=0;" parent="1" vertex="1">
          <mxGeometry x="250.00000000000006" y="490" width="60" height="30" as="geometry" />
        </mxCell>
        <mxCell id="QSe5wPAz3TM46RVLAXsB-27" value="Так" style="text;html=1;strokeColor=none;fillColor=none;align=center;verticalAlign=middle;whiteSpace=wrap;rounded=0;" parent="1" vertex="1">
          <mxGeometry x="500" y="490" width="60" height="30" as="geometry" />
        </mxCell>
        <mxCell id="QSe5wPAz3TM46RVLAXsB-78" style="edgeStyle=orthogonalEdgeStyle;rounded=0;orthogonalLoop=1;jettySize=auto;html=1;exitX=0.5;exitY=1;exitDx=0;exitDy=0;entryX=0.5;entryY=0;entryDx=0;entryDy=0;" parent="1" source="QSe5wPAz3TM46RVLAXsB-74" target="QSe5wPAz3TM46RVLAXsB-7" edge="1">
          <mxGeometry relative="1" as="geometry" />
        </mxCell>
        <mxCell id="QSe5wPAz3TM46RVLAXsB-74" value="Задання розміру масиву значення &lt;br&gt;N=1000" style="shape=parallelogram;perimeter=parallelogramPerimeter;whiteSpace=wrap;html=1;fixedSize=1;" parent="1" vertex="1">
          <mxGeometry x="289" y="170" width="246" height="60" as="geometry" />
        </mxCell>
        <mxCell id="QSe5wPAz3TM46RVLAXsB-82" style="edgeStyle=orthogonalEdgeStyle;rounded=0;orthogonalLoop=1;jettySize=auto;html=1;exitX=0.5;exitY=1;exitDx=0;exitDy=0;entryX=0.5;entryY=0;entryDx=0;entryDy=0;" parent="1" source="QSe5wPAz3TM46RVLAXsB-79" target="QSe5wPAz3TM46RVLAXsB-81" edge="1">
          <mxGeometry relative="1" as="geometry" />
        </mxCell>
        <mxCell id="QSe5wPAz3TM46RVLAXsB-79" value="Створення масиву cell з розміром а" style="shape=parallelogram;perimeter=parallelogramPerimeter;whiteSpace=wrap;html=1;fixedSize=1;" parent="1" vertex="1">
          <mxGeometry x="283" y="330" width="246" height="60" as="geometry" />
        </mxCell>
        <mxCell id="QSe5wPAz3TM46RVLAXsB-84" style="edgeStyle=orthogonalEdgeStyle;rounded=0;orthogonalLoop=1;jettySize=auto;html=1;exitX=0.5;exitY=1;exitDx=0;exitDy=0;entryX=0.5;entryY=0;entryDx=0;entryDy=0;" parent="1" source="QSe5wPAz3TM46RVLAXsB-81" target="QSe5wPAz3TM46RVLAXsB-13" edge="1">
          <mxGeometry relative="1" as="geometry" />
        </mxCell>
        <mxCell id="QSe5wPAz3TM46RVLAXsB-81" value="Створення запиту на задання значення int a" style="shape=parallelogram;perimeter=parallelogramPerimeter;whiteSpace=wrap;html=1;fixedSize=1;" parent="1" vertex="1">
          <mxGeometry x="294.57" y="405" width="217" height="60" as="geometry" />
        </mxCell>
        <mxCell id="QSe5wPAz3TM46RVLAXsB-87" style="edgeStyle=orthogonalEdgeStyle;rounded=0;orthogonalLoop=1;jettySize=auto;html=1;exitX=0;exitY=0.5;exitDx=0;exitDy=0;entryX=0;entryY=0.5;entryDx=0;entryDy=0;" parent="1" source="QSe5wPAz3TM46RVLAXsB-83" target="QSe5wPAz3TM46RVLAXsB-81" edge="1">
          <mxGeometry relative="1" as="geometry">
            <Array as="points">
              <mxPoint x="180" y="580" />
              <mxPoint x="180" y="435" />
            </Array>
          </mxGeometry>
        </mxCell>
        <mxCell id="QSe5wPAz3TM46RVLAXsB-83" value="Виведення тексту про помилку" style="shape=parallelogram;perimeter=parallelogramPerimeter;whiteSpace=wrap;html=1;fixedSize=1;" parent="1" vertex="1">
          <mxGeometry x="181" y="550" width="160" height="60" as="geometry" />
        </mxCell>
        <mxCell id="QSe5wPAz3TM46RVLAXsB-91" style="edgeStyle=orthogonalEdgeStyle;rounded=0;orthogonalLoop=1;jettySize=auto;html=1;entryX=0.5;entryY=0;entryDx=0;entryDy=0;" parent="1" source="QSe5wPAz3TM46RVLAXsB-88" target="QSe5wPAz3TM46RVLAXsB-89" edge="1">
          <mxGeometry relative="1" as="geometry" />
        </mxCell>
        <mxCell id="QSe5wPAz3TM46RVLAXsB-88" value="Введення змінної i = 0 для циклу for" style="shape=parallelogram;perimeter=parallelogramPerimeter;whiteSpace=wrap;html=1;fixedSize=1;" parent="1" vertex="1">
          <mxGeometry x="476" y="555" width="146" height="60" as="geometry" />
        </mxCell>
        <mxCell id="QSe5wPAz3TM46RVLAXsB-89" value="Введення значення для i+1 елементу масиву" style="shape=parallelogram;perimeter=parallelogramPerimeter;whiteSpace=wrap;html=1;fixedSize=1;" parent="1" vertex="1">
          <mxGeometry x="462.5" y="660" width="173" height="60" as="geometry" />
        </mxCell>
        <mxCell id="QSe5wPAz3TM46RVLAXsB-104" style="edgeStyle=orthogonalEdgeStyle;rounded=0;orthogonalLoop=1;jettySize=auto;html=1;exitX=0.5;exitY=1;exitDx=0;exitDy=0;entryX=0.5;entryY=0;entryDx=0;entryDy=0;" parent="1" source="QSe5wPAz3TM46RVLAXsB-93" target="QSe5wPAz3TM46RVLAXsB-94" edge="1">
          <mxGeometry relative="1" as="geometry" />
        </mxCell>
        <mxCell id="QSe5wPAz3TM46RVLAXsB-93" value="Чи справджується рівність i&amp;lt;а?" style="rhombus;whiteSpace=wrap;html=1;" parent="1" vertex="1">
          <mxGeometry x="600" y="710" width="251" height="100" as="geometry" />
        </mxCell>
        <mxCell id="QSe5wPAz3TM46RVLAXsB-99" style="edgeStyle=orthogonalEdgeStyle;rounded=0;orthogonalLoop=1;jettySize=auto;html=1;exitX=1;exitY=0.5;exitDx=0;exitDy=0;" parent="1" source="QSe5wPAz3TM46RVLAXsB-94" edge="1">
          <mxGeometry relative="1" as="geometry">
            <mxPoint x="550" y="630" as="targetPoint" />
            <Array as="points">
              <mxPoint x="870" y="860" />
              <mxPoint x="870" y="630" />
            </Array>
          </mxGeometry>
        </mxCell>
        <mxCell id="QSe5wPAz3TM46RVLAXsB-94" value="Проведення операції ++i" style="rounded=1;whiteSpace=wrap;html=1;" parent="1" vertex="1">
          <mxGeometry x="665.5" y="830" width="120" height="60" as="geometry" />
        </mxCell>
        <mxCell id="QSe5wPAz3TM46RVLAXsB-95" value="Ні" style="text;html=1;strokeColor=none;fillColor=none;align=center;verticalAlign=middle;whiteSpace=wrap;rounded=0;" parent="1" vertex="1">
          <mxGeometry x="725.5" y="800" width="60" height="30" as="geometry" />
        </mxCell>
        <mxCell id="QSe5wPAz3TM46RVLAXsB-96" style="edgeStyle=orthogonalEdgeStyle;rounded=0;orthogonalLoop=1;jettySize=auto;html=1;exitX=1;exitY=0.5;exitDx=0;exitDy=0;entryX=0.5;entryY=0;entryDx=0;entryDy=0;" parent="1" target="QSe5wPAz3TM46RVLAXsB-93" edge="1">
          <mxGeometry relative="1" as="geometry">
            <mxPoint x="626.69" y="690" as="sourcePoint" />
            <Array as="points">
              <mxPoint x="726" y="690" />
            </Array>
          </mxGeometry>
        </mxCell>
        <mxCell id="QSe5wPAz3TM46RVLAXsB-128" style="edgeStyle=orthogonalEdgeStyle;rounded=0;orthogonalLoop=1;jettySize=auto;html=1;exitX=1;exitY=1;exitDx=0;exitDy=0;" parent="1" source="QSe5wPAz3TM46RVLAXsB-100" target="QSe5wPAz3TM46RVLAXsB-101" edge="1">
          <mxGeometry relative="1" as="geometry">
            <Array as="points">
              <mxPoint x="173" y="760" />
            </Array>
          </mxGeometry>
        </mxCell>
        <mxCell id="QSe5wPAz3TM46RVLAXsB-100" value="Так" style="text;html=1;strokeColor=none;fillColor=none;align=center;verticalAlign=middle;whiteSpace=wrap;rounded=0;" parent="1" vertex="1">
          <mxGeometry x="550" y="730" width="60" height="30" as="geometry" />
        </mxCell>
        <mxCell id="QSe5wPAz3TM46RVLAXsB-106" style="edgeStyle=orthogonalEdgeStyle;rounded=0;orthogonalLoop=1;jettySize=auto;html=1;exitX=0.5;exitY=1;exitDx=0;exitDy=0;entryX=0.5;entryY=0;entryDx=0;entryDy=0;" parent="1" source="QSe5wPAz3TM46RVLAXsB-101" target="QSe5wPAz3TM46RVLAXsB-105" edge="1">
          <mxGeometry relative="1" as="geometry" />
        </mxCell>
        <mxCell id="QSe5wPAz3TM46RVLAXsB-101" value="Введення змінної int drone1 = 1 та drone2 = a" style="shape=parallelogram;perimeter=parallelogramPerimeter;whiteSpace=wrap;html=1;fixedSize=1;" parent="1" vertex="1">
          <mxGeometry x="63" y="810" width="220" height="60" as="geometry" />
        </mxCell>
        <mxCell id="QSe5wPAz3TM46RVLAXsB-109" style="edgeStyle=orthogonalEdgeStyle;rounded=0;orthogonalLoop=1;jettySize=auto;html=1;exitX=0.5;exitY=1;exitDx=0;exitDy=0;entryX=0.5;entryY=0;entryDx=0;entryDy=0;" parent="1" source="QSe5wPAz3TM46RVLAXsB-105" target="QSe5wPAz3TM46RVLAXsB-107" edge="1">
          <mxGeometry relative="1" as="geometry" />
        </mxCell>
        <mxCell id="QSe5wPAz3TM46RVLAXsB-105" value="При заданих умовах drone1&amp;lt;=a drone2&amp;gt;=1" style="rounded=1;whiteSpace=wrap;html=1;" parent="1" vertex="1">
          <mxGeometry x="113" y="890" width="120" height="60" as="geometry" />
        </mxCell>
        <mxCell id="QSe5wPAz3TM46RVLAXsB-110" style="edgeStyle=orthogonalEdgeStyle;rounded=0;orthogonalLoop=1;jettySize=auto;html=1;exitX=0.5;exitY=1;exitDx=0;exitDy=0;entryX=0.5;entryY=0;entryDx=0;entryDy=0;" parent="1" source="QSe5wPAz3TM46RVLAXsB-107" target="QSe5wPAz3TM46RVLAXsB-108" edge="1">
          <mxGeometry relative="1" as="geometry" />
        </mxCell>
        <mxCell id="QSe5wPAz3TM46RVLAXsB-107" value="Виконати операцію drone1+=cell[drone1-1] - рух дрона 1 вправо" style="rounded=1;whiteSpace=wrap;html=1;" parent="1" vertex="1">
          <mxGeometry x="103.5" y="970" width="139" height="60" as="geometry" />
        </mxCell>
        <mxCell id="QSe5wPAz3TM46RVLAXsB-131" style="edgeStyle=orthogonalEdgeStyle;rounded=0;orthogonalLoop=1;jettySize=auto;html=1;exitX=0.5;exitY=1;exitDx=0;exitDy=0;entryX=0.5;entryY=0;entryDx=0;entryDy=0;" parent="1" source="QSe5wPAz3TM46RVLAXsB-108" target="QSe5wPAz3TM46RVLAXsB-129" edge="1">
          <mxGeometry relative="1" as="geometry" />
        </mxCell>
        <mxCell id="QSe5wPAz3TM46RVLAXsB-108" value="Виконати операцію drone2-=cell[drone12+1] - рух дрона 2 вліво" style="rounded=1;whiteSpace=wrap;html=1;" parent="1" vertex="1">
          <mxGeometry x="103.5" y="1050" width="139" height="60" as="geometry" />
        </mxCell>
        <mxCell id="QSe5wPAz3TM46RVLAXsB-115" style="edgeStyle=orthogonalEdgeStyle;rounded=0;orthogonalLoop=1;jettySize=auto;html=1;exitX=0.5;exitY=1;exitDx=0;exitDy=0;entryX=0.5;entryY=0;entryDx=0;entryDy=0;" parent="1" source="QSe5wPAz3TM46RVLAXsB-111" target="QSe5wPAz3TM46RVLAXsB-113" edge="1">
          <mxGeometry relative="1" as="geometry" />
        </mxCell>
        <mxCell id="QSe5wPAz3TM46RVLAXsB-116" style="edgeStyle=orthogonalEdgeStyle;rounded=0;orthogonalLoop=1;jettySize=auto;html=1;exitX=1;exitY=0.5;exitDx=0;exitDy=0;entryX=0;entryY=0.5;entryDx=0;entryDy=0;" parent="1" source="QSe5wPAz3TM46RVLAXsB-111" target="QSe5wPAz3TM46RVLAXsB-114" edge="1">
          <mxGeometry relative="1" as="geometry" />
        </mxCell>
        <mxCell id="QSe5wPAz3TM46RVLAXsB-111" value="Чи задовільняється умова drone1=drone2-1 та drone2=drone1+1?" style="rhombus;whiteSpace=wrap;html=1;" parent="1" vertex="1">
          <mxGeometry x="406.63" y="990" width="193.37" height="100" as="geometry" />
        </mxCell>
        <mxCell id="QSe5wPAz3TM46RVLAXsB-120" style="edgeStyle=orthogonalEdgeStyle;rounded=0;orthogonalLoop=1;jettySize=auto;html=1;exitX=1;exitY=0.5;exitDx=0;exitDy=0;entryX=0;entryY=0.5;entryDx=0;entryDy=0;" parent="1" source="QSe5wPAz3TM46RVLAXsB-113" target="QSe5wPAz3TM46RVLAXsB-119" edge="1">
          <mxGeometry relative="1" as="geometry" />
        </mxCell>
        <mxCell id="QSe5wPAz3TM46RVLAXsB-123" style="edgeStyle=orthogonalEdgeStyle;rounded=0;orthogonalLoop=1;jettySize=auto;html=1;exitX=0.5;exitY=1;exitDx=0;exitDy=0;entryX=0.5;entryY=0;entryDx=0;entryDy=0;" parent="1" source="QSe5wPAz3TM46RVLAXsB-113" target="QSe5wPAz3TM46RVLAXsB-122" edge="1">
          <mxGeometry relative="1" as="geometry" />
        </mxCell>
        <mxCell id="QSe5wPAz3TM46RVLAXsB-113" value="Чи задовільняється умова drone1=drone2?" style="rhombus;whiteSpace=wrap;html=1;" parent="1" vertex="1">
          <mxGeometry x="406.63" y="1115" width="193.37" height="100" as="geometry" />
        </mxCell>
        <mxCell id="QSe5wPAz3TM46RVLAXsB-137" style="edgeStyle=orthogonalEdgeStyle;rounded=0;orthogonalLoop=1;jettySize=auto;html=1;exitX=1;exitY=0.5;exitDx=0;exitDy=0;entryX=0;entryY=0.5;entryDx=0;entryDy=0;" parent="1" source="QSe5wPAz3TM46RVLAXsB-114" target="QSe5wPAz3TM46RVLAXsB-132" edge="1">
          <mxGeometry relative="1" as="geometry" />
        </mxCell>
        <mxCell id="QSe5wPAz3TM46RVLAXsB-114" value="Вивід &quot;Stopped&quot;" style="shape=parallelogram;perimeter=parallelogramPerimeter;whiteSpace=wrap;html=1;fixedSize=1;" parent="1" vertex="1">
          <mxGeometry x="622" y="1010" width="173" height="60" as="geometry" />
        </mxCell>
        <mxCell id="QSe5wPAz3TM46RVLAXsB-117" value="Так" style="text;html=1;strokeColor=none;fillColor=none;align=center;verticalAlign=middle;whiteSpace=wrap;rounded=0;" parent="1" vertex="1">
          <mxGeometry x="580" y="1010" width="60" height="30" as="geometry" />
        </mxCell>
        <mxCell id="QSe5wPAz3TM46RVLAXsB-118" value="Ні" style="text;html=1;strokeColor=none;fillColor=none;align=center;verticalAlign=middle;whiteSpace=wrap;rounded=0;" parent="1" vertex="1">
          <mxGeometry x="500" y="1080" width="60" height="30" as="geometry" />
        </mxCell>
        <mxCell id="QSe5wPAz3TM46RVLAXsB-140" style="edgeStyle=orthogonalEdgeStyle;rounded=0;orthogonalLoop=1;jettySize=auto;html=1;exitX=1;exitY=0.5;exitDx=0;exitDy=0;entryX=0;entryY=0.5;entryDx=0;entryDy=0;" parent="1" source="QSe5wPAz3TM46RVLAXsB-119" target="QSe5wPAz3TM46RVLAXsB-138" edge="1">
          <mxGeometry relative="1" as="geometry" />
        </mxCell>
        <mxCell id="QSe5wPAz3TM46RVLAXsB-119" value="Вивід &quot;Collision&quot;" style="shape=parallelogram;perimeter=parallelogramPerimeter;whiteSpace=wrap;html=1;fixedSize=1;" parent="1" vertex="1">
          <mxGeometry x="622" y="1135" width="173" height="60" as="geometry" />
        </mxCell>
        <mxCell id="QSe5wPAz3TM46RVLAXsB-121" value="Так" style="text;html=1;strokeColor=none;fillColor=none;align=center;verticalAlign=middle;whiteSpace=wrap;rounded=0;" parent="1" vertex="1">
          <mxGeometry x="580" y="1140" width="60" height="30" as="geometry" />
        </mxCell>
        <mxCell id="QSe5wPAz3TM46RVLAXsB-125" style="edgeStyle=orthogonalEdgeStyle;rounded=0;orthogonalLoop=1;jettySize=auto;html=1;exitX=1;exitY=0.5;exitDx=0;exitDy=0;entryX=0;entryY=0.5;entryDx=0;entryDy=0;" parent="1" source="QSe5wPAz3TM46RVLAXsB-122" target="QSe5wPAz3TM46RVLAXsB-124" edge="1">
          <mxGeometry relative="1" as="geometry" />
        </mxCell>
        <mxCell id="QSe5wPAz3TM46RVLAXsB-122" value="Чи задовільняється умова drone1&amp;gt;drone2?" style="rhombus;whiteSpace=wrap;html=1;" parent="1" vertex="1">
          <mxGeometry x="406.63" y="1240" width="193.37" height="100" as="geometry" />
        </mxCell>
        <mxCell id="QSe5wPAz3TM46RVLAXsB-142" style="edgeStyle=orthogonalEdgeStyle;rounded=0;orthogonalLoop=1;jettySize=auto;html=1;exitX=1;exitY=0.5;exitDx=0;exitDy=0;entryX=0;entryY=0.5;entryDx=0;entryDy=0;" parent="1" source="QSe5wPAz3TM46RVLAXsB-124" target="QSe5wPAz3TM46RVLAXsB-141" edge="1">
          <mxGeometry relative="1" as="geometry" />
        </mxCell>
        <mxCell id="QSe5wPAz3TM46RVLAXsB-124" value="Вивід &quot;Collision&quot;" style="shape=parallelogram;perimeter=parallelogramPerimeter;whiteSpace=wrap;html=1;fixedSize=1;" parent="1" vertex="1">
          <mxGeometry x="622" y="1260" width="173" height="60" as="geometry" />
        </mxCell>
        <mxCell id="QSe5wPAz3TM46RVLAXsB-126" value="Ні" style="text;html=1;strokeColor=none;fillColor=none;align=center;verticalAlign=middle;whiteSpace=wrap;rounded=0;" parent="1" vertex="1">
          <mxGeometry x="500" y="1210" width="60" height="30" as="geometry" />
        </mxCell>
        <mxCell id="QSe5wPAz3TM46RVLAXsB-127" value="Так" style="text;html=1;strokeColor=none;fillColor=none;align=center;verticalAlign=middle;whiteSpace=wrap;rounded=0;" parent="1" vertex="1">
          <mxGeometry x="580" y="1260" width="60" height="30" as="geometry" />
        </mxCell>
        <mxCell id="QSe5wPAz3TM46RVLAXsB-130" value="" style="edgeStyle=orthogonalEdgeStyle;rounded=0;orthogonalLoop=1;jettySize=auto;html=1;" parent="1" source="QSe5wPAz3TM46RVLAXsB-129" target="QSe5wPAz3TM46RVLAXsB-111" edge="1">
          <mxGeometry relative="1" as="geometry" />
        </mxCell>
        <mxCell id="QSe5wPAz3TM46RVLAXsB-129" value="Вивід знаходження дронів&lt;br&gt;drone1+cell[drone1-1]&lt;br&gt;drone2-cell[drone2-1]" style="shape=parallelogram;perimeter=parallelogramPerimeter;whiteSpace=wrap;html=1;fixedSize=1;" parent="1" vertex="1">
          <mxGeometry x="303" y="890" width="173" height="60" as="geometry" />
        </mxCell>
        <mxCell id="QSe5wPAz3TM46RVLAXsB-132" value="Фініш" style="ellipse;whiteSpace=wrap;html=1;" parent="1" vertex="1">
          <mxGeometry x="810" y="1000" width="120" height="80" as="geometry" />
        </mxCell>
        <mxCell id="QSe5wPAz3TM46RVLAXsB-138" value="Фініш" style="ellipse;whiteSpace=wrap;html=1;" parent="1" vertex="1">
          <mxGeometry x="810" y="1125" width="120" height="80" as="geometry" />
        </mxCell>
        <mxCell id="QSe5wPAz3TM46RVLAXsB-141" value="Фініш" style="ellipse;whiteSpace=wrap;html=1;" parent="1" vertex="1">
          <mxGeometry x="810" y="1250" width="120" height="80" as="geometry" />
        </mxCell>
      </root>
    </mxGraphModel>
  </diagram>
  <diagram id="7-RWbsqPARSAbqc5esZb" name="Сторінка-6">
    <mxGraphModel dx="1500" dy="774" grid="1" gridSize="10" guides="1" tooltips="1" connect="1" arrows="1" fold="1" page="1" pageScale="1" pageWidth="827" pageHeight="1169" math="0" shadow="0">
      <root>
        <mxCell id="0" />
        <mxCell id="1" parent="0" />
        <mxCell id="pMxygvkzSb1aUEvFBQhl-1" style="edgeStyle=orthogonalEdgeStyle;rounded=0;orthogonalLoop=1;jettySize=auto;html=1;entryX=0.5;entryY=0;entryDx=0;entryDy=0;" parent="1" source="pMxygvkzSb1aUEvFBQhl-2" target="pMxygvkzSb1aUEvFBQhl-4" edge="1">
          <mxGeometry relative="1" as="geometry" />
        </mxCell>
        <mxCell id="pMxygvkzSb1aUEvFBQhl-2" value="Старт" style="ellipse;whiteSpace=wrap;html=1;" parent="1" vertex="1">
          <mxGeometry x="306" y="10" width="120" height="80" as="geometry" />
        </mxCell>
        <mxCell id="pMxygvkzSb1aUEvFBQhl-3" style="edgeStyle=orthogonalEdgeStyle;rounded=0;orthogonalLoop=1;jettySize=auto;html=1;exitX=0.5;exitY=1;exitDx=0;exitDy=0;entryX=0.5;entryY=0;entryDx=0;entryDy=0;" parent="1" source="pMxygvkzSb1aUEvFBQhl-4" edge="1">
          <mxGeometry relative="1" as="geometry">
            <mxPoint x="369" y="190" as="targetPoint" />
          </mxGeometry>
        </mxCell>
        <mxCell id="pMxygvkzSb1aUEvFBQhl-4" value="Підключення бібліотек iostream, vector та algorithm" style="rounded=1;whiteSpace=wrap;html=1;" parent="1" vertex="1">
          <mxGeometry x="306" y="110" width="120" height="60" as="geometry" />
        </mxCell>
        <mxCell id="2YvFkN8TNnehaY5b66eW-3" style="edgeStyle=orthogonalEdgeStyle;rounded=0;orthogonalLoop=1;jettySize=auto;html=1;exitX=0.5;exitY=1;exitDx=0;exitDy=0;entryX=0.5;entryY=0;entryDx=0;entryDy=0;" edge="1" parent="1" source="pMxygvkzSb1aUEvFBQhl-6" target="pMxygvkzSb1aUEvFBQhl-17">
          <mxGeometry relative="1" as="geometry" />
        </mxCell>
        <mxCell id="pMxygvkzSb1aUEvFBQhl-6" value="Введення змінної int n, nsd, sum2=0" style="shape=parallelogram;perimeter=parallelogramPerimeter;whiteSpace=wrap;html=1;fixedSize=1;" parent="1" vertex="1">
          <mxGeometry x="230" y="270" width="260" height="60" as="geometry" />
        </mxCell>
        <mxCell id="2YvFkN8TNnehaY5b66eW-6" style="edgeStyle=orthogonalEdgeStyle;rounded=0;orthogonalLoop=1;jettySize=auto;html=1;exitX=0.5;exitY=1;exitDx=0;exitDy=0;entryX=0.5;entryY=0;entryDx=0;entryDy=0;" edge="1" parent="1" source="pMxygvkzSb1aUEvFBQhl-15" target="pMxygvkzSb1aUEvFBQhl-21">
          <mxGeometry relative="1" as="geometry" />
        </mxCell>
        <mxCell id="pMxygvkzSb1aUEvFBQhl-15" value="Створення динамічного масиву a із &lt;br&gt;заданим розміром n" style="shape=parallelogram;perimeter=parallelogramPerimeter;whiteSpace=wrap;html=1;fixedSize=1;" parent="1" vertex="1">
          <mxGeometry x="238" y="430" width="256" height="60" as="geometry" />
        </mxCell>
        <mxCell id="2YvFkN8TNnehaY5b66eW-4" style="edgeStyle=orthogonalEdgeStyle;rounded=0;orthogonalLoop=1;jettySize=auto;html=1;exitX=0.5;exitY=1;exitDx=0;exitDy=0;entryX=0.5;entryY=0;entryDx=0;entryDy=0;" edge="1" parent="1" source="pMxygvkzSb1aUEvFBQhl-17" target="pMxygvkzSb1aUEvFBQhl-15">
          <mxGeometry relative="1" as="geometry" />
        </mxCell>
        <mxCell id="pMxygvkzSb1aUEvFBQhl-17" value="Створення запиту на задання значення n (кількість партій)" style="shape=parallelogram;perimeter=parallelogramPerimeter;whiteSpace=wrap;html=1;fixedSize=1;" parent="1" vertex="1">
          <mxGeometry x="251.5" y="350" width="217" height="60" as="geometry" />
        </mxCell>
        <mxCell id="pMxygvkzSb1aUEvFBQhl-20" style="edgeStyle=orthogonalEdgeStyle;rounded=0;orthogonalLoop=1;jettySize=auto;html=1;entryX=0.5;entryY=0;entryDx=0;entryDy=0;" parent="1" source="pMxygvkzSb1aUEvFBQhl-21" target="pMxygvkzSb1aUEvFBQhl-22" edge="1">
          <mxGeometry relative="1" as="geometry" />
        </mxCell>
        <mxCell id="pMxygvkzSb1aUEvFBQhl-21" value="Введення змінної &lt;br&gt;i = 0 для циклу for" style="shape=parallelogram;perimeter=parallelogramPerimeter;whiteSpace=wrap;html=1;fixedSize=1;" parent="1" vertex="1">
          <mxGeometry x="283" y="510" width="146" height="60" as="geometry" />
        </mxCell>
        <mxCell id="2YvFkN8TNnehaY5b66eW-5" style="edgeStyle=orthogonalEdgeStyle;rounded=0;orthogonalLoop=1;jettySize=auto;html=1;exitX=1;exitY=0.5;exitDx=0;exitDy=0;entryX=0.5;entryY=0;entryDx=0;entryDy=0;" edge="1" parent="1" source="pMxygvkzSb1aUEvFBQhl-22" target="pMxygvkzSb1aUEvFBQhl-24">
          <mxGeometry relative="1" as="geometry" />
        </mxCell>
        <mxCell id="pMxygvkzSb1aUEvFBQhl-22" value="Введення значення для i+1 елементу масиву (кількість голосів для кожної партії)" style="shape=parallelogram;perimeter=parallelogramPerimeter;whiteSpace=wrap;html=1;fixedSize=1;" parent="1" vertex="1">
          <mxGeometry x="264.75" y="615" width="182.5" height="60" as="geometry" />
        </mxCell>
        <mxCell id="AL6-Visei4wrFvU81CdR-4" style="edgeStyle=orthogonalEdgeStyle;rounded=0;orthogonalLoop=1;jettySize=auto;html=1;exitX=0;exitY=0.5;exitDx=0;exitDy=0;entryX=1;entryY=0.5;entryDx=0;entryDy=0;" parent="1" source="pMxygvkzSb1aUEvFBQhl-24" target="pMxygvkzSb1aUEvFBQhl-26" edge="1">
          <mxGeometry relative="1" as="geometry" />
        </mxCell>
        <mxCell id="2YvFkN8TNnehaY5b66eW-8" style="edgeStyle=orthogonalEdgeStyle;rounded=0;orthogonalLoop=1;jettySize=auto;html=1;exitX=1;exitY=0.5;exitDx=0;exitDy=0;entryX=0;entryY=0.5;entryDx=0;entryDy=0;" edge="1" parent="1" source="pMxygvkzSb1aUEvFBQhl-24" target="2YvFkN8TNnehaY5b66eW-7">
          <mxGeometry relative="1" as="geometry" />
        </mxCell>
        <mxCell id="pMxygvkzSb1aUEvFBQhl-24" value="Чи справджується рівність i&amp;lt;n?" style="rhombus;whiteSpace=wrap;html=1;" parent="1" vertex="1">
          <mxGeometry x="470" y="715" width="251" height="100" as="geometry" />
        </mxCell>
        <mxCell id="AL6-Visei4wrFvU81CdR-5" style="edgeStyle=orthogonalEdgeStyle;rounded=0;orthogonalLoop=1;jettySize=auto;html=1;exitX=0;exitY=0.5;exitDx=0;exitDy=0;entryX=0;entryY=0.5;entryDx=0;entryDy=0;" parent="1" source="pMxygvkzSb1aUEvFBQhl-26" target="pMxygvkzSb1aUEvFBQhl-22" edge="1">
          <mxGeometry relative="1" as="geometry">
            <Array as="points">
              <mxPoint x="190" y="765" />
              <mxPoint x="190" y="645" />
            </Array>
          </mxGeometry>
        </mxCell>
        <mxCell id="pMxygvkzSb1aUEvFBQhl-26" value="Проведення операції i++" style="rounded=1;whiteSpace=wrap;html=1;" parent="1" vertex="1">
          <mxGeometry x="296" y="735" width="120" height="60" as="geometry" />
        </mxCell>
        <mxCell id="AL6-Visei4wrFvU81CdR-3" value="Так" style="text;html=1;strokeColor=none;fillColor=none;align=center;verticalAlign=middle;whiteSpace=wrap;rounded=0;" parent="1" vertex="1">
          <mxGeometry x="693.25" y="735" width="60" height="30" as="geometry" />
        </mxCell>
        <mxCell id="AL6-Visei4wrFvU81CdR-6" value="Ні" style="text;html=1;strokeColor=none;fillColor=none;align=center;verticalAlign=middle;whiteSpace=wrap;rounded=0;" parent="1" vertex="1">
          <mxGeometry x="429" y="735" width="60" height="30" as="geometry" />
        </mxCell>
        <mxCell id="2YvFkN8TNnehaY5b66eW-2" style="edgeStyle=orthogonalEdgeStyle;rounded=0;orthogonalLoop=1;jettySize=auto;html=1;exitX=0.5;exitY=1;exitDx=0;exitDy=0;entryX=0.5;entryY=0;entryDx=0;entryDy=0;" edge="1" parent="1" source="2YvFkN8TNnehaY5b66eW-1" target="pMxygvkzSb1aUEvFBQhl-6">
          <mxGeometry relative="1" as="geometry" />
        </mxCell>
        <mxCell id="2YvFkN8TNnehaY5b66eW-1" value="Створення умови для знаходження найбільшого спільного дільника (НСД) gcd за допомогою функції" style="rounded=1;whiteSpace=wrap;html=1;" vertex="1" parent="1">
          <mxGeometry x="274" y="190" width="184" height="60" as="geometry" />
        </mxCell>
        <mxCell id="2YvFkN8TNnehaY5b66eW-14" style="edgeStyle=orthogonalEdgeStyle;rounded=0;orthogonalLoop=1;jettySize=auto;html=1;exitX=0.5;exitY=0;exitDx=0;exitDy=0;entryX=0.5;entryY=1;entryDx=0;entryDy=0;" edge="1" parent="1" source="2YvFkN8TNnehaY5b66eW-7" target="2YvFkN8TNnehaY5b66eW-9">
          <mxGeometry relative="1" as="geometry" />
        </mxCell>
        <mxCell id="2YvFkN8TNnehaY5b66eW-16" style="edgeStyle=orthogonalEdgeStyle;rounded=0;orthogonalLoop=1;jettySize=auto;html=1;exitX=1;exitY=0.5;exitDx=0;exitDy=0;entryX=0;entryY=0.5;entryDx=0;entryDy=0;" edge="1" parent="1" source="2YvFkN8TNnehaY5b66eW-7" target="2YvFkN8TNnehaY5b66eW-15">
          <mxGeometry relative="1" as="geometry" />
        </mxCell>
        <mxCell id="2YvFkN8TNnehaY5b66eW-7" value="Кількість &lt;br&gt;партій n = 1?" style="rhombus;whiteSpace=wrap;html=1;" vertex="1" parent="1">
          <mxGeometry x="753.25" y="725" width="172" height="80" as="geometry" />
        </mxCell>
        <mxCell id="2YvFkN8TNnehaY5b66eW-13" style="edgeStyle=orthogonalEdgeStyle;rounded=0;orthogonalLoop=1;jettySize=auto;html=1;exitX=0.5;exitY=0;exitDx=0;exitDy=0;entryX=0.5;entryY=1;entryDx=0;entryDy=0;" edge="1" parent="1" source="2YvFkN8TNnehaY5b66eW-9" target="2YvFkN8TNnehaY5b66eW-12">
          <mxGeometry relative="1" as="geometry" />
        </mxCell>
        <mxCell id="2YvFkN8TNnehaY5b66eW-9" value="Вивід: 1" style="shape=parallelogram;perimeter=parallelogramPerimeter;whiteSpace=wrap;html=1;fixedSize=1;" vertex="1" parent="1">
          <mxGeometry x="780" y="630" width="120" height="60" as="geometry" />
        </mxCell>
        <mxCell id="2YvFkN8TNnehaY5b66eW-11" value="Так" style="text;html=1;strokeColor=none;fillColor=none;align=center;verticalAlign=middle;whiteSpace=wrap;rounded=0;" vertex="1" parent="1">
          <mxGeometry x="840" y="705" width="60" height="30" as="geometry" />
        </mxCell>
        <mxCell id="2YvFkN8TNnehaY5b66eW-12" value="Фініш" style="ellipse;whiteSpace=wrap;html=1;" vertex="1" parent="1">
          <mxGeometry x="780" y="510" width="120" height="80" as="geometry" />
        </mxCell>
        <mxCell id="2YvFkN8TNnehaY5b66eW-19" style="edgeStyle=orthogonalEdgeStyle;rounded=0;orthogonalLoop=1;jettySize=auto;html=1;exitX=0.5;exitY=0;exitDx=0;exitDy=0;entryX=0.5;entryY=1;entryDx=0;entryDy=0;" edge="1" parent="1" source="2YvFkN8TNnehaY5b66eW-15" target="2YvFkN8TNnehaY5b66eW-18">
          <mxGeometry relative="1" as="geometry" />
        </mxCell>
        <mxCell id="2YvFkN8TNnehaY5b66eW-15" value="Застосування функції gcd для знаходження НСД для кількості голосів перших двох партій&lt;br&gt;nsd = gcd(a[0], a[1])" style="rounded=1;whiteSpace=wrap;html=1;" vertex="1" parent="1">
          <mxGeometry x="950" y="727.5" width="190" height="75" as="geometry" />
        </mxCell>
        <mxCell id="2YvFkN8TNnehaY5b66eW-17" value="Ні" style="text;html=1;strokeColor=none;fillColor=none;align=center;verticalAlign=middle;whiteSpace=wrap;rounded=0;" vertex="1" parent="1">
          <mxGeometry x="900" y="735" width="60" height="30" as="geometry" />
        </mxCell>
        <mxCell id="2YvFkN8TNnehaY5b66eW-21" style="edgeStyle=orthogonalEdgeStyle;rounded=0;orthogonalLoop=1;jettySize=auto;html=1;exitX=0.5;exitY=0;exitDx=0;exitDy=0;" edge="1" parent="1" source="2YvFkN8TNnehaY5b66eW-18">
          <mxGeometry relative="1" as="geometry">
            <mxPoint x="1044.7619047619046" y="600" as="targetPoint" />
          </mxGeometry>
        </mxCell>
        <mxCell id="2YvFkN8TNnehaY5b66eW-18" value="Введення змінної &lt;br&gt;i = 2 для циклу for" style="shape=parallelogram;perimeter=parallelogramPerimeter;whiteSpace=wrap;html=1;fixedSize=1;" vertex="1" parent="1">
          <mxGeometry x="972" y="630" width="146" height="60" as="geometry" />
        </mxCell>
        <mxCell id="2YvFkN8TNnehaY5b66eW-23" style="edgeStyle=orthogonalEdgeStyle;rounded=0;orthogonalLoop=1;jettySize=auto;html=1;exitX=0.5;exitY=0;exitDx=0;exitDy=0;entryX=0.5;entryY=1;entryDx=0;entryDy=0;" edge="1" parent="1" source="2YvFkN8TNnehaY5b66eW-20" target="2YvFkN8TNnehaY5b66eW-22">
          <mxGeometry relative="1" as="geometry" />
        </mxCell>
        <mxCell id="2YvFkN8TNnehaY5b66eW-20" value="Застосування функції gcd для знаходження НСД між НСД перших двох партій та наступної партії&lt;br&gt;nsd = gcd(nsd, a[i])" style="rounded=1;whiteSpace=wrap;html=1;" vertex="1" parent="1">
          <mxGeometry x="950" y="520" width="190" height="75" as="geometry" />
        </mxCell>
        <mxCell id="2YvFkN8TNnehaY5b66eW-25" style="edgeStyle=orthogonalEdgeStyle;rounded=0;orthogonalLoop=1;jettySize=auto;html=1;exitX=1;exitY=0.5;exitDx=0;exitDy=0;entryX=0;entryY=0.5;entryDx=0;entryDy=0;" edge="1" parent="1" source="2YvFkN8TNnehaY5b66eW-22" target="2YvFkN8TNnehaY5b66eW-24">
          <mxGeometry relative="1" as="geometry" />
        </mxCell>
        <mxCell id="2YvFkN8TNnehaY5b66eW-29" style="edgeStyle=orthogonalEdgeStyle;rounded=0;orthogonalLoop=1;jettySize=auto;html=1;exitX=0.5;exitY=0;exitDx=0;exitDy=0;entryX=0.5;entryY=1;entryDx=0;entryDy=0;" edge="1" parent="1" source="2YvFkN8TNnehaY5b66eW-22" target="2YvFkN8TNnehaY5b66eW-28">
          <mxGeometry relative="1" as="geometry" />
        </mxCell>
        <mxCell id="2YvFkN8TNnehaY5b66eW-22" value="Чи справджується рівність i&amp;lt;n?" style="rhombus;whiteSpace=wrap;html=1;" vertex="1" parent="1">
          <mxGeometry x="919.5" y="390" width="251" height="100" as="geometry" />
        </mxCell>
        <mxCell id="2YvFkN8TNnehaY5b66eW-27" style="edgeStyle=orthogonalEdgeStyle;rounded=0;orthogonalLoop=1;jettySize=auto;html=1;exitX=0.5;exitY=1;exitDx=0;exitDy=0;entryX=1;entryY=0.5;entryDx=0;entryDy=0;" edge="1" parent="1" source="2YvFkN8TNnehaY5b66eW-24" target="2YvFkN8TNnehaY5b66eW-20">
          <mxGeometry relative="1" as="geometry" />
        </mxCell>
        <mxCell id="2YvFkN8TNnehaY5b66eW-24" value="Проведення операції i++" style="rounded=1;whiteSpace=wrap;html=1;" vertex="1" parent="1">
          <mxGeometry x="1220" y="410" width="120" height="60" as="geometry" />
        </mxCell>
        <mxCell id="2YvFkN8TNnehaY5b66eW-26" value="Ні" style="text;html=1;strokeColor=none;fillColor=none;align=center;verticalAlign=middle;whiteSpace=wrap;rounded=0;" vertex="1" parent="1">
          <mxGeometry x="1140" y="410" width="60" height="30" as="geometry" />
        </mxCell>
        <mxCell id="2YvFkN8TNnehaY5b66eW-32" style="edgeStyle=orthogonalEdgeStyle;rounded=0;orthogonalLoop=1;jettySize=auto;html=1;exitX=0.5;exitY=0;exitDx=0;exitDy=0;entryX=0.5;entryY=1;entryDx=0;entryDy=0;" edge="1" parent="1" source="2YvFkN8TNnehaY5b66eW-28" target="2YvFkN8TNnehaY5b66eW-31">
          <mxGeometry relative="1" as="geometry" />
        </mxCell>
        <mxCell id="2YvFkN8TNnehaY5b66eW-28" value="Введення змінної &lt;br&gt;i = 0 для циклу for" style="shape=parallelogram;perimeter=parallelogramPerimeter;whiteSpace=wrap;html=1;fixedSize=1;" vertex="1" parent="1">
          <mxGeometry x="972" y="290" width="146" height="60" as="geometry" />
        </mxCell>
        <mxCell id="2YvFkN8TNnehaY5b66eW-30" value="Так" style="text;html=1;strokeColor=none;fillColor=none;align=center;verticalAlign=middle;whiteSpace=wrap;rounded=0;" vertex="1" parent="1">
          <mxGeometry x="1040" y="365" width="60" height="30" as="geometry" />
        </mxCell>
        <mxCell id="2YvFkN8TNnehaY5b66eW-35" style="edgeStyle=orthogonalEdgeStyle;rounded=0;orthogonalLoop=1;jettySize=auto;html=1;exitX=0.5;exitY=0;exitDx=0;exitDy=0;entryX=0.5;entryY=1;entryDx=0;entryDy=0;" edge="1" parent="1" source="2YvFkN8TNnehaY5b66eW-31" target="2YvFkN8TNnehaY5b66eW-33">
          <mxGeometry relative="1" as="geometry" />
        </mxCell>
        <mxCell id="2YvFkN8TNnehaY5b66eW-31" value="Знаходження пропорційної суми кількості місць для кожної партії шляхом ділення кількості голосів кожної партії на НСД&lt;br&gt;sum2+=a[i]/nsd" style="rounded=1;whiteSpace=wrap;html=1;" vertex="1" parent="1">
          <mxGeometry x="960" y="180" width="185" height="80" as="geometry" />
        </mxCell>
        <mxCell id="2YvFkN8TNnehaY5b66eW-36" style="edgeStyle=orthogonalEdgeStyle;rounded=0;orthogonalLoop=1;jettySize=auto;html=1;exitX=1;exitY=0.5;exitDx=0;exitDy=0;entryX=0;entryY=0.5;entryDx=0;entryDy=0;" edge="1" parent="1" source="2YvFkN8TNnehaY5b66eW-33" target="2YvFkN8TNnehaY5b66eW-34">
          <mxGeometry relative="1" as="geometry" />
        </mxCell>
        <mxCell id="2YvFkN8TNnehaY5b66eW-44" style="edgeStyle=orthogonalEdgeStyle;rounded=0;orthogonalLoop=1;jettySize=auto;html=1;exitX=0.5;exitY=0;exitDx=0;exitDy=0;entryX=0.5;entryY=0;entryDx=0;entryDy=0;" edge="1" parent="1" source="2YvFkN8TNnehaY5b66eW-33" target="2YvFkN8TNnehaY5b66eW-41">
          <mxGeometry relative="1" as="geometry" />
        </mxCell>
        <mxCell id="2YvFkN8TNnehaY5b66eW-33" value="Чи справджується рівність i&amp;lt;n?" style="rhombus;whiteSpace=wrap;html=1;" vertex="1" parent="1">
          <mxGeometry x="927" y="50" width="251" height="100" as="geometry" />
        </mxCell>
        <mxCell id="2YvFkN8TNnehaY5b66eW-37" style="edgeStyle=orthogonalEdgeStyle;rounded=0;orthogonalLoop=1;jettySize=auto;html=1;exitX=0.5;exitY=1;exitDx=0;exitDy=0;entryX=1;entryY=0.5;entryDx=0;entryDy=0;" edge="1" parent="1" source="2YvFkN8TNnehaY5b66eW-34" target="2YvFkN8TNnehaY5b66eW-31">
          <mxGeometry relative="1" as="geometry" />
        </mxCell>
        <mxCell id="2YvFkN8TNnehaY5b66eW-34" value="Проведення операції i++" style="rounded=1;whiteSpace=wrap;html=1;" vertex="1" parent="1">
          <mxGeometry x="1230" y="70" width="120" height="60" as="geometry" />
        </mxCell>
        <mxCell id="2YvFkN8TNnehaY5b66eW-38" value="Так" style="text;html=1;strokeColor=none;fillColor=none;align=center;verticalAlign=middle;whiteSpace=wrap;rounded=0;" vertex="1" parent="1">
          <mxGeometry x="1058" y="30" width="60" height="30" as="geometry" />
        </mxCell>
        <mxCell id="2YvFkN8TNnehaY5b66eW-39" value="Ні" style="text;html=1;strokeColor=none;fillColor=none;align=center;verticalAlign=middle;whiteSpace=wrap;rounded=0;" vertex="1" parent="1">
          <mxGeometry x="1150" y="70" width="60" height="30" as="geometry" />
        </mxCell>
        <mxCell id="2YvFkN8TNnehaY5b66eW-40" style="edgeStyle=orthogonalEdgeStyle;rounded=0;orthogonalLoop=1;jettySize=auto;html=1;exitX=0.5;exitY=1;exitDx=0;exitDy=0;entryX=0.5;entryY=0;entryDx=0;entryDy=0;" edge="1" parent="1" source="2YvFkN8TNnehaY5b66eW-41" target="2YvFkN8TNnehaY5b66eW-42">
          <mxGeometry relative="1" as="geometry" />
        </mxCell>
        <mxCell id="2YvFkN8TNnehaY5b66eW-41" value="Вивід змінної sum2" style="shape=parallelogram;perimeter=parallelogramPerimeter;whiteSpace=wrap;html=1;fixedSize=1;" vertex="1" parent="1">
          <mxGeometry x="1400" y="70" width="146" height="60" as="geometry" />
        </mxCell>
        <mxCell id="2YvFkN8TNnehaY5b66eW-42" value="Фініш" style="ellipse;whiteSpace=wrap;html=1;" vertex="1" parent="1">
          <mxGeometry x="1413" y="160" width="120" height="80" as="geometry" />
        </mxCell>
      </root>
    </mxGraphModel>
  </diagram>
  <diagram id="g6bNKrADXLphUBrGQFUb" name="Сторінка-7">
    <mxGraphModel dx="2577" dy="883" grid="1" gridSize="10" guides="1" tooltips="1" connect="1" arrows="1" fold="1" page="1" pageScale="1" pageWidth="827" pageHeight="1169" math="0" shadow="0">
      <root>
        <mxCell id="0" />
        <mxCell id="1" parent="0" />
        <mxCell id="fJpQyOyU42x7AzlfJ8Pg-1" style="edgeStyle=orthogonalEdgeStyle;rounded=0;orthogonalLoop=1;jettySize=auto;html=1;entryX=0.5;entryY=0;entryDx=0;entryDy=0;" edge="1" parent="1" source="fJpQyOyU42x7AzlfJ8Pg-2" target="fJpQyOyU42x7AzlfJ8Pg-3">
          <mxGeometry relative="1" as="geometry" />
        </mxCell>
        <mxCell id="fJpQyOyU42x7AzlfJ8Pg-2" value="Старт" style="ellipse;whiteSpace=wrap;html=1;" vertex="1" parent="1">
          <mxGeometry x="306" y="10" width="120" height="80" as="geometry" />
        </mxCell>
        <mxCell id="QUA_aln2GLALxXJRRK4J-2" style="edgeStyle=orthogonalEdgeStyle;rounded=0;orthogonalLoop=1;jettySize=auto;html=1;exitX=0.5;exitY=1;exitDx=0;exitDy=0;entryX=0.5;entryY=0;entryDx=0;entryDy=0;" edge="1" parent="1" source="fJpQyOyU42x7AzlfJ8Pg-3" target="QUA_aln2GLALxXJRRK4J-1">
          <mxGeometry relative="1" as="geometry" />
        </mxCell>
        <mxCell id="fJpQyOyU42x7AzlfJ8Pg-3" value="Підключення бібліотек iostream та string" style="rounded=1;whiteSpace=wrap;html=1;" vertex="1" parent="1">
          <mxGeometry x="306" y="110" width="120" height="60" as="geometry" />
        </mxCell>
        <mxCell id="aex04Yl5zCOzMI_1r2-E-2" style="edgeStyle=orthogonalEdgeStyle;rounded=0;orthogonalLoop=1;jettySize=auto;html=1;exitX=0.5;exitY=1;exitDx=0;exitDy=0;entryX=0.5;entryY=0;entryDx=0;entryDy=0;" edge="1" parent="1" source="QUA_aln2GLALxXJRRK4J-1" target="aex04Yl5zCOzMI_1r2-E-1">
          <mxGeometry relative="1" as="geometry" />
        </mxCell>
        <mxCell id="QUA_aln2GLALxXJRRK4J-1" value="Введення змінної string weather" style="shape=parallelogram;perimeter=parallelogramPerimeter;whiteSpace=wrap;html=1;fixedSize=1;" vertex="1" parent="1">
          <mxGeometry x="236" y="200" width="260" height="60" as="geometry" />
        </mxCell>
        <mxCell id="aex04Yl5zCOzMI_1r2-E-4" style="edgeStyle=orthogonalEdgeStyle;rounded=0;orthogonalLoop=1;jettySize=auto;html=1;exitX=0.5;exitY=1;exitDx=0;exitDy=0;entryX=0.5;entryY=0;entryDx=0;entryDy=0;" edge="1" parent="1" source="aex04Yl5zCOzMI_1r2-E-1" target="aex04Yl5zCOzMI_1r2-E-3">
          <mxGeometry relative="1" as="geometry" />
        </mxCell>
        <mxCell id="aex04Yl5zCOzMI_1r2-E-1" value="Створення запиту на задання значення weather" style="shape=parallelogram;perimeter=parallelogramPerimeter;whiteSpace=wrap;html=1;fixedSize=1;" vertex="1" parent="1">
          <mxGeometry x="257.5" y="280" width="217" height="60" as="geometry" />
        </mxCell>
        <mxCell id="gcvrGOzcRGu7Oq9k_BkM-4" style="edgeStyle=orthogonalEdgeStyle;rounded=0;orthogonalLoop=1;jettySize=auto;html=1;exitX=0;exitY=0.5;exitDx=0;exitDy=0;entryX=0.5;entryY=0;entryDx=0;entryDy=0;" edge="1" parent="1" source="aex04Yl5zCOzMI_1r2-E-3" target="gcvrGOzcRGu7Oq9k_BkM-1">
          <mxGeometry relative="1" as="geometry">
            <Array as="points">
              <mxPoint x="153" y="390" />
            </Array>
          </mxGeometry>
        </mxCell>
        <mxCell id="gcvrGOzcRGu7Oq9k_BkM-5" style="edgeStyle=orthogonalEdgeStyle;rounded=0;orthogonalLoop=1;jettySize=auto;html=1;exitX=1;exitY=0.5;exitDx=0;exitDy=0;entryX=0.5;entryY=0;entryDx=0;entryDy=0;" edge="1" parent="1" source="aex04Yl5zCOzMI_1r2-E-3" target="gcvrGOzcRGu7Oq9k_BkM-2">
          <mxGeometry relative="1" as="geometry">
            <Array as="points">
              <mxPoint x="583" y="390" />
            </Array>
          </mxGeometry>
        </mxCell>
        <mxCell id="gcvrGOzcRGu7Oq9k_BkM-6" style="edgeStyle=orthogonalEdgeStyle;rounded=0;orthogonalLoop=1;jettySize=auto;html=1;exitX=0.5;exitY=1;exitDx=0;exitDy=0;entryX=0.5;entryY=0;entryDx=0;entryDy=0;" edge="1" parent="1" source="aex04Yl5zCOzMI_1r2-E-3" target="gcvrGOzcRGu7Oq9k_BkM-3">
          <mxGeometry relative="1" as="geometry" />
        </mxCell>
        <mxCell id="aex04Yl5zCOzMI_1r2-E-3" value="Вивід значення weather" style="shape=parallelogram;perimeter=parallelogramPerimeter;whiteSpace=wrap;html=1;fixedSize=1;" vertex="1" parent="1">
          <mxGeometry x="257.5" y="360" width="217" height="60" as="geometry" />
        </mxCell>
        <mxCell id="gcvrGOzcRGu7Oq9k_BkM-10" style="edgeStyle=orthogonalEdgeStyle;rounded=0;orthogonalLoop=1;jettySize=auto;html=1;exitX=0.5;exitY=1;exitDx=0;exitDy=0;entryX=0.5;entryY=0;entryDx=0;entryDy=0;" edge="1" parent="1" source="gcvrGOzcRGu7Oq9k_BkM-1" target="gcvrGOzcRGu7Oq9k_BkM-7">
          <mxGeometry relative="1" as="geometry" />
        </mxCell>
        <mxCell id="gcvrGOzcRGu7Oq9k_BkM-1" value="Якщо значення weather = sunny/cloudy/windy:" style="rhombus;whiteSpace=wrap;html=1;" vertex="1" parent="1">
          <mxGeometry x="30.000000000000057" y="440" width="246.75" height="90" as="geometry" />
        </mxCell>
        <mxCell id="gcvrGOzcRGu7Oq9k_BkM-9" style="edgeStyle=orthogonalEdgeStyle;rounded=0;orthogonalLoop=1;jettySize=auto;html=1;exitX=0.5;exitY=1;exitDx=0;exitDy=0;entryX=0.5;entryY=0;entryDx=0;entryDy=0;" edge="1" parent="1" source="gcvrGOzcRGu7Oq9k_BkM-2" target="gcvrGOzcRGu7Oq9k_BkM-8">
          <mxGeometry relative="1" as="geometry" />
        </mxCell>
        <mxCell id="gcvrGOzcRGu7Oq9k_BkM-2" value="Якщо значення weather = rainy/snowy:" style="rhombus;whiteSpace=wrap;html=1;" vertex="1" parent="1">
          <mxGeometry x="460" y="440" width="246.75" height="90" as="geometry" />
        </mxCell>
        <mxCell id="gcvrGOzcRGu7Oq9k_BkM-12" style="edgeStyle=orthogonalEdgeStyle;rounded=0;orthogonalLoop=1;jettySize=auto;html=1;exitX=0.5;exitY=1;exitDx=0;exitDy=0;entryX=0.5;entryY=0;entryDx=0;entryDy=0;" edge="1" parent="1" source="gcvrGOzcRGu7Oq9k_BkM-3" target="gcvrGOzcRGu7Oq9k_BkM-11">
          <mxGeometry relative="1" as="geometry" />
        </mxCell>
        <mxCell id="gcvrGOzcRGu7Oq9k_BkM-3" value="Інше:" style="rhombus;whiteSpace=wrap;html=1;" vertex="1" parent="1">
          <mxGeometry x="292.31" y="440" width="147.38" height="90" as="geometry" />
        </mxCell>
        <mxCell id="gcvrGOzcRGu7Oq9k_BkM-21" style="edgeStyle=orthogonalEdgeStyle;rounded=0;orthogonalLoop=1;jettySize=auto;html=1;exitX=0.5;exitY=1;exitDx=0;exitDy=0;entryX=0.5;entryY=0;entryDx=0;entryDy=0;" edge="1" parent="1" source="gcvrGOzcRGu7Oq9k_BkM-7" target="gcvrGOzcRGu7Oq9k_BkM-18">
          <mxGeometry relative="1" as="geometry" />
        </mxCell>
        <mxCell id="gcvrGOzcRGu7Oq9k_BkM-7" value="Вивід &quot;You don&#39;t have&lt;br&gt;&amp;nbsp;to take a coat&quot;" style="shape=parallelogram;perimeter=parallelogramPerimeter;whiteSpace=wrap;html=1;fixedSize=1;" vertex="1" parent="1">
          <mxGeometry x="65.81" y="555" width="175.12" height="60" as="geometry" />
        </mxCell>
        <mxCell id="gcvrGOzcRGu7Oq9k_BkM-22" style="edgeStyle=orthogonalEdgeStyle;rounded=0;orthogonalLoop=1;jettySize=auto;html=1;exitX=0.5;exitY=1;exitDx=0;exitDy=0;entryX=0.5;entryY=0;entryDx=0;entryDy=0;" edge="1" parent="1" source="gcvrGOzcRGu7Oq9k_BkM-8" target="gcvrGOzcRGu7Oq9k_BkM-18">
          <mxGeometry relative="1" as="geometry" />
        </mxCell>
        <mxCell id="gcvrGOzcRGu7Oq9k_BkM-8" value="Вивід &quot;You should&lt;br&gt;take a coat&quot;" style="shape=parallelogram;perimeter=parallelogramPerimeter;whiteSpace=wrap;html=1;fixedSize=1;" vertex="1" parent="1">
          <mxGeometry x="495.82" y="555" width="175.12" height="60" as="geometry" />
        </mxCell>
        <mxCell id="gcvrGOzcRGu7Oq9k_BkM-20" style="edgeStyle=orthogonalEdgeStyle;rounded=0;orthogonalLoop=1;jettySize=auto;html=1;exitX=0.5;exitY=1;exitDx=0;exitDy=0;entryX=0.5;entryY=0;entryDx=0;entryDy=0;" edge="1" parent="1" source="gcvrGOzcRGu7Oq9k_BkM-11" target="gcvrGOzcRGu7Oq9k_BkM-18">
          <mxGeometry relative="1" as="geometry" />
        </mxCell>
        <mxCell id="gcvrGOzcRGu7Oq9k_BkM-29" style="edgeStyle=orthogonalEdgeStyle;rounded=0;orthogonalLoop=1;jettySize=auto;html=1;exitX=0.5;exitY=1;exitDx=0;exitDy=0;entryX=0.5;entryY=0;entryDx=0;entryDy=0;" edge="1" parent="1" source="gcvrGOzcRGu7Oq9k_BkM-11" target="gcvrGOzcRGu7Oq9k_BkM-26">
          <mxGeometry relative="1" as="geometry" />
        </mxCell>
        <mxCell id="gcvrGOzcRGu7Oq9k_BkM-30" style="edgeStyle=orthogonalEdgeStyle;rounded=0;orthogonalLoop=1;jettySize=auto;html=1;exitX=0.5;exitY=1;exitDx=0;exitDy=0;entryX=0.5;entryY=0;entryDx=0;entryDy=0;" edge="1" parent="1" source="gcvrGOzcRGu7Oq9k_BkM-11" target="gcvrGOzcRGu7Oq9k_BkM-23">
          <mxGeometry relative="1" as="geometry" />
        </mxCell>
        <mxCell id="gcvrGOzcRGu7Oq9k_BkM-31" style="edgeStyle=orthogonalEdgeStyle;rounded=0;orthogonalLoop=1;jettySize=auto;html=1;exitX=0.5;exitY=1;exitDx=0;exitDy=0;entryX=0.5;entryY=0;entryDx=0;entryDy=0;" edge="1" parent="1" source="gcvrGOzcRGu7Oq9k_BkM-11" target="gcvrGOzcRGu7Oq9k_BkM-25">
          <mxGeometry relative="1" as="geometry" />
        </mxCell>
        <mxCell id="gcvrGOzcRGu7Oq9k_BkM-11" value="Вивід &quot;Not a weather or &lt;br&gt;try to change a language&quot;" style="shape=parallelogram;perimeter=parallelogramPerimeter;whiteSpace=wrap;html=1;fixedSize=1;" vertex="1" parent="1">
          <mxGeometry x="278.44" y="555" width="175.12" height="60" as="geometry" />
        </mxCell>
        <mxCell id="gcvrGOzcRGu7Oq9k_BkM-39" style="edgeStyle=orthogonalEdgeStyle;rounded=0;orthogonalLoop=1;jettySize=auto;html=1;exitX=0.5;exitY=1;exitDx=0;exitDy=0;entryX=0.5;entryY=0;entryDx=0;entryDy=0;" edge="1" parent="1" source="gcvrGOzcRGu7Oq9k_BkM-18" target="gcvrGOzcRGu7Oq9k_BkM-34">
          <mxGeometry relative="1" as="geometry" />
        </mxCell>
        <mxCell id="gcvrGOzcRGu7Oq9k_BkM-18" value="Якщо значення weather = rainy:" style="rhombus;whiteSpace=wrap;html=1;" vertex="1" parent="1">
          <mxGeometry x="242.62" y="680" width="246.75" height="90" as="geometry" />
        </mxCell>
        <mxCell id="gcvrGOzcRGu7Oq9k_BkM-38" style="edgeStyle=orthogonalEdgeStyle;rounded=0;orthogonalLoop=1;jettySize=auto;html=1;exitX=0.5;exitY=1;exitDx=0;exitDy=0;entryX=0.5;entryY=0;entryDx=0;entryDy=0;" edge="1" parent="1" source="gcvrGOzcRGu7Oq9k_BkM-23" target="gcvrGOzcRGu7Oq9k_BkM-35">
          <mxGeometry relative="1" as="geometry" />
        </mxCell>
        <mxCell id="gcvrGOzcRGu7Oq9k_BkM-23" value="Якщо значення weather = cloudy:" style="rhombus;whiteSpace=wrap;html=1;" vertex="1" parent="1">
          <mxGeometry x="496" y="680" width="246.75" height="90" as="geometry" />
        </mxCell>
        <mxCell id="gcvrGOzcRGu7Oq9k_BkM-40" style="edgeStyle=orthogonalEdgeStyle;rounded=0;orthogonalLoop=1;jettySize=auto;html=1;exitX=0.5;exitY=1;exitDx=0;exitDy=0;entryX=0.5;entryY=0;entryDx=0;entryDy=0;" edge="1" parent="1" source="gcvrGOzcRGu7Oq9k_BkM-24" target="gcvrGOzcRGu7Oq9k_BkM-33">
          <mxGeometry relative="1" as="geometry" />
        </mxCell>
        <mxCell id="gcvrGOzcRGu7Oq9k_BkM-24" value="Якщо значення weather = snowy:" style="rhombus;whiteSpace=wrap;html=1;" vertex="1" parent="1">
          <mxGeometry x="-10.75" y="680" width="246.75" height="90" as="geometry" />
        </mxCell>
        <mxCell id="gcvrGOzcRGu7Oq9k_BkM-37" style="edgeStyle=orthogonalEdgeStyle;rounded=0;orthogonalLoop=1;jettySize=auto;html=1;exitX=0.5;exitY=1;exitDx=0;exitDy=0;entryX=0.5;entryY=0;entryDx=0;entryDy=0;" edge="1" parent="1" source="gcvrGOzcRGu7Oq9k_BkM-25" target="gcvrGOzcRGu7Oq9k_BkM-36">
          <mxGeometry relative="1" as="geometry" />
        </mxCell>
        <mxCell id="gcvrGOzcRGu7Oq9k_BkM-25" value="Якщо значення weather = windy:" style="rhombus;whiteSpace=wrap;html=1;" vertex="1" parent="1">
          <mxGeometry x="750" y="680" width="246.75" height="90" as="geometry" />
        </mxCell>
        <mxCell id="gcvrGOzcRGu7Oq9k_BkM-41" style="edgeStyle=orthogonalEdgeStyle;rounded=0;orthogonalLoop=1;jettySize=auto;html=1;exitX=0.5;exitY=1;exitDx=0;exitDy=0;entryX=0.5;entryY=0;entryDx=0;entryDy=0;" edge="1" parent="1" source="gcvrGOzcRGu7Oq9k_BkM-26" target="gcvrGOzcRGu7Oq9k_BkM-32">
          <mxGeometry relative="1" as="geometry" />
        </mxCell>
        <mxCell id="gcvrGOzcRGu7Oq9k_BkM-26" value="Якщо значення weather = sunny:" style="rhombus;whiteSpace=wrap;html=1;" vertex="1" parent="1">
          <mxGeometry x="-270" y="680" width="246.75" height="90" as="geometry" />
        </mxCell>
        <mxCell id="gcvrGOzcRGu7Oq9k_BkM-28" style="edgeStyle=orthogonalEdgeStyle;rounded=0;orthogonalLoop=1;jettySize=auto;html=1;exitX=0.5;exitY=1;exitDx=0;exitDy=0;entryX=0.538;entryY=0.033;entryDx=0;entryDy=0;entryPerimeter=0;" edge="1" parent="1" source="gcvrGOzcRGu7Oq9k_BkM-11" target="gcvrGOzcRGu7Oq9k_BkM-24">
          <mxGeometry relative="1" as="geometry" />
        </mxCell>
        <mxCell id="gcvrGOzcRGu7Oq9k_BkM-44" style="edgeStyle=orthogonalEdgeStyle;rounded=0;orthogonalLoop=1;jettySize=auto;html=1;exitX=0.5;exitY=1;exitDx=0;exitDy=0;entryX=0.5;entryY=0;entryDx=0;entryDy=0;" edge="1" parent="1" source="gcvrGOzcRGu7Oq9k_BkM-32" target="gcvrGOzcRGu7Oq9k_BkM-43">
          <mxGeometry relative="1" as="geometry" />
        </mxCell>
        <mxCell id="gcvrGOzcRGu7Oq9k_BkM-32" value="Вивід &quot;It&#39; a great time for a stroll!..&quot;" style="shape=parallelogram;perimeter=parallelogramPerimeter;whiteSpace=wrap;html=1;fixedSize=1;" vertex="1" parent="1">
          <mxGeometry x="-234.18" y="790" width="175.12" height="60" as="geometry" />
        </mxCell>
        <mxCell id="gcvrGOzcRGu7Oq9k_BkM-45" style="edgeStyle=orthogonalEdgeStyle;rounded=0;orthogonalLoop=1;jettySize=auto;html=1;exitX=0.5;exitY=1;exitDx=0;exitDy=0;entryX=0.5;entryY=0;entryDx=0;entryDy=0;" edge="1" parent="1" source="gcvrGOzcRGu7Oq9k_BkM-33" target="gcvrGOzcRGu7Oq9k_BkM-43">
          <mxGeometry relative="1" as="geometry" />
        </mxCell>
        <mxCell id="gcvrGOzcRGu7Oq9k_BkM-33" value="Вивід &quot;What about going on skiing?&quot;" style="shape=parallelogram;perimeter=parallelogramPerimeter;whiteSpace=wrap;html=1;fixedSize=1;" vertex="1" parent="1">
          <mxGeometry x="25.07" y="790" width="175.12" height="60" as="geometry" />
        </mxCell>
        <mxCell id="gcvrGOzcRGu7Oq9k_BkM-48" style="edgeStyle=orthogonalEdgeStyle;rounded=0;orthogonalLoop=1;jettySize=auto;html=1;exitX=0.5;exitY=1;exitDx=0;exitDy=0;" edge="1" parent="1" source="gcvrGOzcRGu7Oq9k_BkM-34">
          <mxGeometry relative="1" as="geometry">
            <mxPoint x="365.89473684210543" y="890" as="targetPoint" />
          </mxGeometry>
        </mxCell>
        <mxCell id="gcvrGOzcRGu7Oq9k_BkM-34" value="Вивід &quot;It&#39; an ideal weather to tidy up at home :)&quot;" style="shape=parallelogram;perimeter=parallelogramPerimeter;whiteSpace=wrap;html=1;fixedSize=1;" vertex="1" parent="1">
          <mxGeometry x="278.44" y="790" width="175.12" height="60" as="geometry" />
        </mxCell>
        <mxCell id="gcvrGOzcRGu7Oq9k_BkM-47" style="edgeStyle=orthogonalEdgeStyle;rounded=0;orthogonalLoop=1;jettySize=auto;html=1;exitX=0.5;exitY=1;exitDx=0;exitDy=0;entryX=0.5;entryY=0;entryDx=0;entryDy=0;" edge="1" parent="1" source="gcvrGOzcRGu7Oq9k_BkM-35" target="gcvrGOzcRGu7Oq9k_BkM-43">
          <mxGeometry relative="1" as="geometry" />
        </mxCell>
        <mxCell id="gcvrGOzcRGu7Oq9k_BkM-35" value="Вивід &quot;Maybe you should &lt;br&gt;try to film a video.&quot;" style="shape=parallelogram;perimeter=parallelogramPerimeter;whiteSpace=wrap;html=1;fixedSize=1;" vertex="1" parent="1">
          <mxGeometry x="531.63" y="790" width="175.12" height="60" as="geometry" />
        </mxCell>
        <mxCell id="gcvrGOzcRGu7Oq9k_BkM-46" style="edgeStyle=orthogonalEdgeStyle;rounded=0;orthogonalLoop=1;jettySize=auto;html=1;exitX=0.5;exitY=1;exitDx=0;exitDy=0;" edge="1" parent="1" source="gcvrGOzcRGu7Oq9k_BkM-36" target="gcvrGOzcRGu7Oq9k_BkM-43">
          <mxGeometry relative="1" as="geometry" />
        </mxCell>
        <mxCell id="gcvrGOzcRGu7Oq9k_BkM-36" value="Вивід &quot;Try out some new things!..&quot;" style="shape=parallelogram;perimeter=parallelogramPerimeter;whiteSpace=wrap;html=1;fixedSize=1;" vertex="1" parent="1">
          <mxGeometry x="785.81" y="790" width="175.12" height="60" as="geometry" />
        </mxCell>
        <mxCell id="gcvrGOzcRGu7Oq9k_BkM-51" style="edgeStyle=orthogonalEdgeStyle;rounded=0;orthogonalLoop=1;jettySize=auto;html=1;exitX=0.5;exitY=1;exitDx=0;exitDy=0;entryX=0.5;entryY=0;entryDx=0;entryDy=0;" edge="1" parent="1" source="gcvrGOzcRGu7Oq9k_BkM-42" target="gcvrGOzcRGu7Oq9k_BkM-50">
          <mxGeometry relative="1" as="geometry" />
        </mxCell>
        <mxCell id="gcvrGOzcRGu7Oq9k_BkM-56" style="edgeStyle=orthogonalEdgeStyle;rounded=0;orthogonalLoop=1;jettySize=auto;html=1;exitX=0.5;exitY=1;exitDx=0;exitDy=0;entryX=0.5;entryY=0;entryDx=0;entryDy=0;" edge="1" parent="1" source="gcvrGOzcRGu7Oq9k_BkM-42" target="gcvrGOzcRGu7Oq9k_BkM-54">
          <mxGeometry relative="1" as="geometry" />
        </mxCell>
        <mxCell id="gcvrGOzcRGu7Oq9k_BkM-57" style="edgeStyle=orthogonalEdgeStyle;rounded=0;orthogonalLoop=1;jettySize=auto;html=1;exitX=0.5;exitY=1;exitDx=0;exitDy=0;entryX=0.5;entryY=0;entryDx=0;entryDy=0;" edge="1" parent="1" source="gcvrGOzcRGu7Oq9k_BkM-42" target="gcvrGOzcRGu7Oq9k_BkM-55">
          <mxGeometry relative="1" as="geometry" />
        </mxCell>
        <mxCell id="gcvrGOzcRGu7Oq9k_BkM-58" style="edgeStyle=orthogonalEdgeStyle;rounded=0;orthogonalLoop=1;jettySize=auto;html=1;exitX=0.5;exitY=1;exitDx=0;exitDy=0;" edge="1" parent="1" source="gcvrGOzcRGu7Oq9k_BkM-42" target="gcvrGOzcRGu7Oq9k_BkM-52">
          <mxGeometry relative="1" as="geometry" />
        </mxCell>
        <mxCell id="gcvrGOzcRGu7Oq9k_BkM-59" style="edgeStyle=orthogonalEdgeStyle;rounded=0;orthogonalLoop=1;jettySize=auto;html=1;exitX=0.5;exitY=1;exitDx=0;exitDy=0;" edge="1" parent="1" source="gcvrGOzcRGu7Oq9k_BkM-42" target="gcvrGOzcRGu7Oq9k_BkM-53">
          <mxGeometry relative="1" as="geometry" />
        </mxCell>
        <mxCell id="gcvrGOzcRGu7Oq9k_BkM-42" value="Використання конструкції switch (weather_char = weather [1]) (використовується другий символ у кожному зі станів weather)" style="rounded=1;whiteSpace=wrap;html=1;" vertex="1" parent="1">
          <mxGeometry x="264" y="970" width="204" height="60" as="geometry" />
        </mxCell>
        <mxCell id="gcvrGOzcRGu7Oq9k_BkM-49" style="edgeStyle=orthogonalEdgeStyle;rounded=0;orthogonalLoop=1;jettySize=auto;html=1;exitX=0.5;exitY=1;exitDx=0;exitDy=0;entryX=0.5;entryY=0;entryDx=0;entryDy=0;" edge="1" parent="1" source="gcvrGOzcRGu7Oq9k_BkM-43" target="gcvrGOzcRGu7Oq9k_BkM-42">
          <mxGeometry relative="1" as="geometry" />
        </mxCell>
        <mxCell id="gcvrGOzcRGu7Oq9k_BkM-43" value="Введення змінної char weather_char" style="shape=parallelogram;perimeter=parallelogramPerimeter;whiteSpace=wrap;html=1;fixedSize=1;" vertex="1" parent="1">
          <mxGeometry x="236" y="890" width="260" height="60" as="geometry" />
        </mxCell>
        <mxCell id="gcvrGOzcRGu7Oq9k_BkM-61" style="edgeStyle=orthogonalEdgeStyle;rounded=0;orthogonalLoop=1;jettySize=auto;html=1;exitX=0.5;exitY=1;exitDx=0;exitDy=0;entryX=0.5;entryY=0;entryDx=0;entryDy=0;" edge="1" parent="1" source="gcvrGOzcRGu7Oq9k_BkM-50" target="gcvrGOzcRGu7Oq9k_BkM-60">
          <mxGeometry relative="1" as="geometry" />
        </mxCell>
        <mxCell id="gcvrGOzcRGu7Oq9k_BkM-50" value="case &#39;n&#39;:" style="rhombus;whiteSpace=wrap;html=1;" vertex="1" parent="1">
          <mxGeometry x="326" y="1070" width="80" height="80" as="geometry" />
        </mxCell>
        <mxCell id="gcvrGOzcRGu7Oq9k_BkM-71" style="edgeStyle=orthogonalEdgeStyle;rounded=0;orthogonalLoop=1;jettySize=auto;html=1;exitX=0.5;exitY=1;exitDx=0;exitDy=0;entryX=0.5;entryY=0;entryDx=0;entryDy=0;" edge="1" parent="1" source="gcvrGOzcRGu7Oq9k_BkM-52" target="gcvrGOzcRGu7Oq9k_BkM-65">
          <mxGeometry relative="1" as="geometry" />
        </mxCell>
        <mxCell id="gcvrGOzcRGu7Oq9k_BkM-52" value="case &#39;a&#39;:" style="rhombus;whiteSpace=wrap;html=1;" vertex="1" parent="1">
          <mxGeometry x="150.88" y="1070" width="80" height="80" as="geometry" />
        </mxCell>
        <mxCell id="gcvrGOzcRGu7Oq9k_BkM-70" style="edgeStyle=orthogonalEdgeStyle;rounded=0;orthogonalLoop=1;jettySize=auto;html=1;exitX=0.5;exitY=1;exitDx=0;exitDy=0;entryX=0.5;entryY=0;entryDx=0;entryDy=0;" edge="1" parent="1" source="gcvrGOzcRGu7Oq9k_BkM-53" target="gcvrGOzcRGu7Oq9k_BkM-68">
          <mxGeometry relative="1" as="geometry" />
        </mxCell>
        <mxCell id="gcvrGOzcRGu7Oq9k_BkM-53" value="case &#39;u&#39;:" style="rhombus;whiteSpace=wrap;html=1;" vertex="1" parent="1">
          <mxGeometry x="-24.239999999999988" y="1070" width="80" height="80" as="geometry" />
        </mxCell>
        <mxCell id="gcvrGOzcRGu7Oq9k_BkM-78" style="edgeStyle=orthogonalEdgeStyle;rounded=0;orthogonalLoop=1;jettySize=auto;html=1;exitX=0.5;exitY=1;exitDx=0;exitDy=0;entryX=0.5;entryY=0;entryDx=0;entryDy=0;" edge="1" parent="1" source="gcvrGOzcRGu7Oq9k_BkM-54" target="gcvrGOzcRGu7Oq9k_BkM-73">
          <mxGeometry relative="1" as="geometry" />
        </mxCell>
        <mxCell id="gcvrGOzcRGu7Oq9k_BkM-54" value="case &#39;i&#39;:" style="rhombus;whiteSpace=wrap;html=1;" vertex="1" parent="1">
          <mxGeometry x="501.12" y="1070" width="80" height="80" as="geometry" />
        </mxCell>
        <mxCell id="gcvrGOzcRGu7Oq9k_BkM-79" style="edgeStyle=orthogonalEdgeStyle;rounded=0;orthogonalLoop=1;jettySize=auto;html=1;exitX=0.5;exitY=1;exitDx=0;exitDy=0;entryX=0.5;entryY=0;entryDx=0;entryDy=0;" edge="1" parent="1" source="gcvrGOzcRGu7Oq9k_BkM-55" target="gcvrGOzcRGu7Oq9k_BkM-76">
          <mxGeometry relative="1" as="geometry" />
        </mxCell>
        <mxCell id="gcvrGOzcRGu7Oq9k_BkM-55" value="case &#39;l&#39;:" style="rhombus;whiteSpace=wrap;html=1;" vertex="1" parent="1">
          <mxGeometry x="676.24" y="1070" width="80" height="80" as="geometry" />
        </mxCell>
        <mxCell id="gcvrGOzcRGu7Oq9k_BkM-63" style="edgeStyle=orthogonalEdgeStyle;rounded=0;orthogonalLoop=1;jettySize=auto;html=1;exitX=0.5;exitY=1;exitDx=0;exitDy=0;entryX=0.5;entryY=0;entryDx=0;entryDy=0;" edge="1" parent="1" source="gcvrGOzcRGu7Oq9k_BkM-60" target="gcvrGOzcRGu7Oq9k_BkM-62">
          <mxGeometry relative="1" as="geometry" />
        </mxCell>
        <mxCell id="gcvrGOzcRGu7Oq9k_BkM-60" value="Вивід &quot;Winter shoes will &lt;br&gt;keep your legs warm!&quot;" style="shape=parallelogram;perimeter=parallelogramPerimeter;whiteSpace=wrap;html=1;fixedSize=1;" vertex="1" parent="1">
          <mxGeometry x="278.44" y="1180" width="175.12" height="60" as="geometry" />
        </mxCell>
        <mxCell id="gcvrGOzcRGu7Oq9k_BkM-83" style="edgeStyle=orthogonalEdgeStyle;rounded=0;orthogonalLoop=1;jettySize=auto;html=1;exitX=0.5;exitY=1;exitDx=0;exitDy=0;entryX=0.5;entryY=0;entryDx=0;entryDy=0;" edge="1" parent="1" source="gcvrGOzcRGu7Oq9k_BkM-62" target="gcvrGOzcRGu7Oq9k_BkM-80">
          <mxGeometry relative="1" as="geometry" />
        </mxCell>
        <mxCell id="gcvrGOzcRGu7Oq9k_BkM-62" value="break" style="rounded=1;whiteSpace=wrap;html=1;" vertex="1" parent="1">
          <mxGeometry x="306" y="1270" width="120" height="60" as="geometry" />
        </mxCell>
        <mxCell id="gcvrGOzcRGu7Oq9k_BkM-64" style="edgeStyle=orthogonalEdgeStyle;rounded=0;orthogonalLoop=1;jettySize=auto;html=1;exitX=0.5;exitY=1;exitDx=0;exitDy=0;entryX=0.5;entryY=0;entryDx=0;entryDy=0;" edge="1" parent="1" source="gcvrGOzcRGu7Oq9k_BkM-65" target="gcvrGOzcRGu7Oq9k_BkM-66">
          <mxGeometry relative="1" as="geometry" />
        </mxCell>
        <mxCell id="gcvrGOzcRGu7Oq9k_BkM-65" value="Вивід &quot;Shoes for rain &lt;br&gt;would be the best idea!&quot;" style="shape=parallelogram;perimeter=parallelogramPerimeter;whiteSpace=wrap;html=1;fixedSize=1;" vertex="1" parent="1">
          <mxGeometry x="103.32" y="1180" width="175.12" height="60" as="geometry" />
        </mxCell>
        <mxCell id="gcvrGOzcRGu7Oq9k_BkM-82" style="edgeStyle=orthogonalEdgeStyle;rounded=0;orthogonalLoop=1;jettySize=auto;html=1;exitX=0.5;exitY=1;exitDx=0;exitDy=0;entryX=0.5;entryY=0;entryDx=0;entryDy=0;" edge="1" parent="1" source="gcvrGOzcRGu7Oq9k_BkM-66" target="gcvrGOzcRGu7Oq9k_BkM-80">
          <mxGeometry relative="1" as="geometry" />
        </mxCell>
        <mxCell id="gcvrGOzcRGu7Oq9k_BkM-66" value="break" style="rounded=1;whiteSpace=wrap;html=1;" vertex="1" parent="1">
          <mxGeometry x="130.88" y="1270" width="120" height="60" as="geometry" />
        </mxCell>
        <mxCell id="gcvrGOzcRGu7Oq9k_BkM-67" style="edgeStyle=orthogonalEdgeStyle;rounded=0;orthogonalLoop=1;jettySize=auto;html=1;exitX=0.5;exitY=1;exitDx=0;exitDy=0;entryX=0.5;entryY=0;entryDx=0;entryDy=0;" edge="1" parent="1" source="gcvrGOzcRGu7Oq9k_BkM-68" target="gcvrGOzcRGu7Oq9k_BkM-69">
          <mxGeometry relative="1" as="geometry" />
        </mxCell>
        <mxCell id="gcvrGOzcRGu7Oq9k_BkM-68" value="Вивід &quot;Take your &lt;br&gt;best shoes!&quot;" style="shape=parallelogram;perimeter=parallelogramPerimeter;whiteSpace=wrap;html=1;fixedSize=1;" vertex="1" parent="1">
          <mxGeometry x="-71.80000000000001" y="1180" width="175.12" height="60" as="geometry" />
        </mxCell>
        <mxCell id="gcvrGOzcRGu7Oq9k_BkM-81" style="edgeStyle=orthogonalEdgeStyle;rounded=0;orthogonalLoop=1;jettySize=auto;html=1;exitX=0.5;exitY=1;exitDx=0;exitDy=0;entryX=0.5;entryY=0;entryDx=0;entryDy=0;" edge="1" parent="1" source="gcvrGOzcRGu7Oq9k_BkM-69" target="gcvrGOzcRGu7Oq9k_BkM-80">
          <mxGeometry relative="1" as="geometry" />
        </mxCell>
        <mxCell id="gcvrGOzcRGu7Oq9k_BkM-69" value="break" style="rounded=1;whiteSpace=wrap;html=1;" vertex="1" parent="1">
          <mxGeometry x="-44.24000000000001" y="1270" width="120" height="60" as="geometry" />
        </mxCell>
        <mxCell id="gcvrGOzcRGu7Oq9k_BkM-72" style="edgeStyle=orthogonalEdgeStyle;rounded=0;orthogonalLoop=1;jettySize=auto;html=1;exitX=0.5;exitY=1;exitDx=0;exitDy=0;entryX=0.5;entryY=0;entryDx=0;entryDy=0;" edge="1" parent="1" source="gcvrGOzcRGu7Oq9k_BkM-73" target="gcvrGOzcRGu7Oq9k_BkM-74">
          <mxGeometry relative="1" as="geometry" />
        </mxCell>
        <mxCell id="gcvrGOzcRGu7Oq9k_BkM-73" value="Вивід &quot;Take something endurable!&quot;" style="shape=parallelogram;perimeter=parallelogramPerimeter;whiteSpace=wrap;html=1;fixedSize=1;" vertex="1" parent="1">
          <mxGeometry x="453.56" y="1180" width="175.12" height="60" as="geometry" />
        </mxCell>
        <mxCell id="gcvrGOzcRGu7Oq9k_BkM-84" style="edgeStyle=orthogonalEdgeStyle;rounded=0;orthogonalLoop=1;jettySize=auto;html=1;exitX=0.5;exitY=1;exitDx=0;exitDy=0;entryX=0.5;entryY=0;entryDx=0;entryDy=0;" edge="1" parent="1" source="gcvrGOzcRGu7Oq9k_BkM-74" target="gcvrGOzcRGu7Oq9k_BkM-80">
          <mxGeometry relative="1" as="geometry" />
        </mxCell>
        <mxCell id="gcvrGOzcRGu7Oq9k_BkM-74" value="break" style="rounded=1;whiteSpace=wrap;html=1;" vertex="1" parent="1">
          <mxGeometry x="481.12" y="1270" width="120" height="60" as="geometry" />
        </mxCell>
        <mxCell id="gcvrGOzcRGu7Oq9k_BkM-75" style="edgeStyle=orthogonalEdgeStyle;rounded=0;orthogonalLoop=1;jettySize=auto;html=1;exitX=0.5;exitY=1;exitDx=0;exitDy=0;entryX=0.5;entryY=0;entryDx=0;entryDy=0;" edge="1" parent="1" source="gcvrGOzcRGu7Oq9k_BkM-76" target="gcvrGOzcRGu7Oq9k_BkM-77">
          <mxGeometry relative="1" as="geometry" />
        </mxCell>
        <mxCell id="gcvrGOzcRGu7Oq9k_BkM-76" value="Вивід &quot;Today any &lt;br&gt;shoes can be used!&quot;" style="shape=parallelogram;perimeter=parallelogramPerimeter;whiteSpace=wrap;html=1;fixedSize=1;" vertex="1" parent="1">
          <mxGeometry x="628.6800000000001" y="1180" width="175.12" height="60" as="geometry" />
        </mxCell>
        <mxCell id="gcvrGOzcRGu7Oq9k_BkM-85" style="edgeStyle=orthogonalEdgeStyle;rounded=0;orthogonalLoop=1;jettySize=auto;html=1;exitX=0.5;exitY=1;exitDx=0;exitDy=0;entryX=0.5;entryY=0;entryDx=0;entryDy=0;" edge="1" parent="1" source="gcvrGOzcRGu7Oq9k_BkM-77" target="gcvrGOzcRGu7Oq9k_BkM-80">
          <mxGeometry relative="1" as="geometry" />
        </mxCell>
        <mxCell id="gcvrGOzcRGu7Oq9k_BkM-77" value="break" style="rounded=1;whiteSpace=wrap;html=1;" vertex="1" parent="1">
          <mxGeometry x="656.24" y="1270" width="120" height="60" as="geometry" />
        </mxCell>
        <mxCell id="gcvrGOzcRGu7Oq9k_BkM-80" value="Фініш" style="ellipse;whiteSpace=wrap;html=1;" vertex="1" parent="1">
          <mxGeometry x="305.99" y="1370" width="120" height="80" as="geometry" />
        </mxCell>
      </root>
    </mxGraphModel>
  </diagram>
</mxfile>
